<svg width="489.5833333333333" height="327.0833333333333" viewBox="0 0 235 157" xmlns="http://www.w3.org/2000/svg" xmlns:usvg="https://github.com/RazrFalcon/usvg" usvg:version="0.8.0">
    <defs/>
    <path fill="none" stroke="#000000" stroke-miterlimit="10" stroke-width="0.8" stroke-linejoin="round" transform="matrix(1 0 0 -1 -111 661)" d="M 176 528 C 192 528 208 544 212 644"/>
    <path fill-rule="evenodd" stroke="#000000" stroke-miterlimit="10" stroke-width="0.8" stroke-linejoin="round" transform="matrix(1 0 0 -1 -111 661)" d="M 212 644 L 210.882812 641.042969 L 211.902344 641.601562 L 212.878906 640.960938 Z M 212 644"/>
    <path fill="none" stroke="#000000" stroke-miterlimit="10" stroke-width="0.8" stroke-linejoin="round" transform="matrix(1 0 0 -1 -111 661)" d="M 176 528 C 176 525.332031 157.332031 524 120 524"/>
    <path fill-rule="evenodd" stroke="#000000" stroke-miterlimit="10" stroke-width="0.8" stroke-linejoin="round" transform="matrix(1 0 0 -1 -111 661)" d="M 120 524 L 123 523 L 122.398438 524 L 123 525 Z M 120 524"/>
    <path transform="matrix(1 0 0 1 16.897 148.999)" d="M 2.828125 -6.234375 C 2.828125 -6.4375 2.6875 -6.59375 2.46875 -6.59375 C 2.1875 -6.59375 1.921875 -6.328125 1.921875 -6.0625 C 1.921875 -5.875 2.0625 -5.703125 2.296875 -5.703125 C 2.53125 -5.703125 2.828125 -5.9375 2.828125 -6.234375 Z M 2.078125 -2.484375 C 2.1875 -2.765625 2.1875 -2.796875 2.296875 -3.0625 C 2.375 -3.265625 2.421875 -3.40625 2.421875 -3.59375 C 2.421875 -4.03125 2.109375 -4.40625 1.609375 -4.40625 C 0.671875 -4.40625 0.296875 -2.953125 0.296875 -2.875 C 0.296875 -2.765625 0.390625 -2.765625 0.40625 -2.765625 C 0.515625 -2.765625 0.515625 -2.796875 0.5625 -2.953125 C 0.84375 -3.890625 1.234375 -4.1875 1.578125 -4.1875 C 1.65625 -4.1875 1.828125 -4.1875 1.828125 -3.875 C 1.828125 -3.65625 1.75 -3.453125 1.71875 -3.34375 C 1.640625 -3.09375 1.1875 -1.9375 1.03125 -1.5 C 0.921875 -1.25 0.796875 -0.921875 0.796875 -0.703125 C 0.796875 -0.234375 1.140625 0.109375 1.609375 0.109375 C 2.546875 0.109375 2.921875 -1.328125 2.921875 -1.421875 C 2.921875 -1.53125 2.828125 -1.53125 2.796875 -1.53125 C 2.703125 -1.53125 2.703125 -1.5 2.65625 -1.34375 C 2.46875 -0.71875 2.140625 -0.109375 1.640625 -0.109375 C 1.46875 -0.109375 1.390625 -0.203125 1.390625 -0.4375 C 1.390625 -0.6875 1.453125 -0.828125 1.6875 -1.4375 Z M 2.078125 -2.484375"/>
    <path transform="matrix(1 0 0 1 20.329 150.494)" d="M 1.390625 -1.59375 C 1.390625 -2.171875 1.65625 -2.875 2.328125 -2.875 C 2.265625 -2.828125 2.203125 -2.734375 2.203125 -2.625 C 2.203125 -2.390625 2.390625 -2.3125 2.515625 -2.3125 C 2.6875 -2.3125 2.84375 -2.421875 2.84375 -2.625 C 2.84375 -2.859375 2.609375 -3.078125 2.28125 -3.078125 C 1.9375 -3.078125 1.546875 -2.859375 1.34375 -2.328125 L 1.34375 -3.078125 L 0.34375 -3 L 0.34375 -2.75 C 0.8125 -2.75 0.859375 -2.703125 0.859375 -2.359375 L 0.859375 -0.546875 C 0.859375 -0.25 0.796875 -0.25 0.34375 -0.25 L 0.34375 0 C 0.375 0 0.84375 -0.03125 1.140625 -0.03125 C 1.4375 -0.03125 1.734375 -0.015625 2.046875 0 L 2.046875 -0.25 L 1.90625 -0.25 C 1.390625 -0.25 1.390625 -0.328125 1.390625 -0.5625 Z M 1.390625 -1.59375"/>
    <path transform="matrix(1 0 0 1 23.439315 150.494)" d="M 3.0625 -1.59375 C 3.21875 -1.59375 3.265625 -1.59375 3.265625 -1.734375 C 3.265625 -2.359375 2.921875 -3.109375 1.875 -3.109375 C 0.96875 -3.109375 0.265625 -2.390625 0.265625 -1.53125 C 0.265625 -0.640625 1.046875 0.0625 1.96875 0.0625 C 2.90625 0.0625 3.265625 -0.6875 3.265625 -0.84375 C 3.265625 -0.859375 3.25 -0.9375 3.140625 -0.9375 C 3.046875 -0.9375 3.03125 -0.890625 3.015625 -0.828125 C 2.796875 -0.265625 2.265625 -0.15625 2.015625 -0.15625 C 1.6875 -0.15625 1.375 -0.296875 1.171875 -0.5625 C 0.90625 -0.890625 0.90625 -1.3125 0.90625 -1.59375 Z M 0.90625 -1.765625 C 0.984375 -2.75 1.609375 -2.90625 1.875 -2.90625 C 2.734375 -2.90625 2.765625 -1.9375 2.78125 -1.765625 Z M 0.90625 -1.765625"/>
    <path transform="matrix(1 0 0 1 26.975031 150.494)" d="M 3.296875 -2.328125 C 3.5 -2.75 3.84375 -2.75 3.953125 -2.75 L 3.953125 -3 C 3.78125 -2.984375 3.609375 -2.96875 3.421875 -2.96875 C 3.234375 -2.96875 2.984375 -2.984375 2.796875 -3 L 2.796875 -2.75 C 3.09375 -2.734375 3.09375 -2.515625 3.09375 -2.484375 C 3.09375 -2.453125 3.078125 -2.390625 3.03125 -2.28125 L 2.25 -0.5625 L 1.375 -2.453125 C 1.375 -2.46875 1.34375 -2.546875 1.34375 -2.59375 C 1.34375 -2.75 1.578125 -2.75 1.6875 -2.75 L 1.6875 -3 C 1.671875 -3 1.1875 -2.96875 0.90625 -2.96875 C 0.6875 -2.96875 0.421875 -2.984375 0.21875 -3 L 0.21875 -2.75 C 0.59375 -2.75 0.6875 -2.734375 0.78125 -2.5 L 1.890625 -0.078125 C 1.921875 0 1.96875 0.0625 2.078125 0.0625 C 2.21875 0.0625 2.25 0 2.28125 -0.0625 Z M 3.296875 -2.328125"/>
    <path transform="matrix(1 0 0 1 31.776 148.999)" d="M 3.296875 2.390625 C 3.296875 2.359375 3.296875 2.34375 3.125 2.171875 C 1.890625 0.921875 1.5625 -0.96875 1.5625 -2.5 C 1.5625 -4.234375 1.9375 -5.96875 3.171875 -7.203125 C 3.296875 -7.328125 3.296875 -7.34375 3.296875 -7.375 C 3.296875 -7.453125 3.265625 -7.484375 3.203125 -7.484375 C 3.09375 -7.484375 2.203125 -6.796875 1.609375 -5.53125 C 1.109375 -4.4375 0.984375 -3.328125 0.984375 -2.5 C 0.984375 -1.71875 1.09375 -0.515625 1.640625 0.625 C 2.25 1.84375 3.09375 2.5 3.203125 2.5 C 3.265625 2.5 3.296875 2.46875 3.296875 2.390625 Z M 3.296875 2.390625"/>
    <path transform="matrix(1 0 0 1 35.65 148.999)" d="M 2.296875 -3.5 C 2.359375 -3.703125 2.453125 -4.09375 2.453125 -4.140625 C 2.453125 -4.3125 2.328125 -4.40625 2.15625 -4.40625 C 2.140625 -4.40625 1.859375 -4.390625 1.765625 -4.046875 L 0.328125 1.71875 C 0.296875 1.84375 0.296875 1.859375 0.296875 1.890625 C 0.296875 2.03125 0.40625 2.15625 0.578125 2.15625 C 0.78125 2.15625 0.90625 1.96875 0.921875 1.9375 C 0.96875 1.859375 1.09375 1.328125 1.46875 -0.203125 C 1.796875 0.0625 2.25 0.109375 2.4375 0.109375 C 3.140625 0.109375 3.53125 -0.34375 3.765625 -0.625 C 3.859375 -0.171875 4.234375 0.109375 4.671875 0.109375 C 5.015625 0.109375 5.25 -0.125 5.40625 -0.4375 C 5.578125 -0.796875 5.703125 -1.40625 5.703125 -1.421875 C 5.703125 -1.53125 5.609375 -1.53125 5.578125 -1.53125 C 5.484375 -1.53125 5.46875 -1.484375 5.4375 -1.34375 C 5.28125 -0.703125 5.09375 -0.109375 4.6875 -0.109375 C 4.421875 -0.109375 4.390625 -0.375 4.390625 -0.5625 C 4.390625 -0.78125 4.5 -1.25 4.578125 -1.609375 L 4.859375 -2.6875 C 4.890625 -2.828125 5 -3.203125 5.03125 -3.359375 C 5.078125 -3.59375 5.1875 -3.96875 5.1875 -4.03125 C 5.1875 -4.203125 5.046875 -4.296875 4.890625 -4.296875 C 4.84375 -4.296875 4.578125 -4.28125 4.5 -3.953125 L 4.03125 -2.078125 C 3.921875 -1.578125 3.8125 -1.171875 3.78125 -1.0625 C 3.765625 -1.015625 3.296875 -0.109375 2.484375 -0.109375 C 1.984375 -0.109375 1.75 -0.4375 1.75 -0.984375 C 1.75 -1.265625 1.8125 -1.546875 1.890625 -1.828125 Z M 2.296875 -3.5"/>
    <path transform="matrix(1 0 0 1 41.653 148.999)" d="M 3.96875 -6.9375 C 3.921875 -7.0625 3.890625 -7.140625 3.734375 -7.140625 C 3.578125 -7.140625 3.546875 -7.078125 3.5 -6.9375 L 1.4375 -0.984375 C 1.25 -0.46875 0.859375 -0.3125 0.3125 -0.3125 L 0.3125 0 C 0.546875 -0.015625 0.984375 -0.03125 1.328125 -0.03125 C 1.640625 -0.03125 2.15625 -0.015625 2.484375 0 L 2.484375 -0.3125 C 1.984375 -0.3125 1.734375 -0.5625 1.734375 -0.8125 C 1.734375 -0.84375 1.75 -0.953125 1.75 -0.96875 L 2.21875 -2.265625 L 4.671875 -2.265625 L 5.203125 -0.75 C 5.21875 -0.703125 5.234375 -0.640625 5.234375 -0.609375 C 5.234375 -0.3125 4.671875 -0.3125 4.40625 -0.3125 L 4.40625 0 C 4.765625 -0.03125 5.46875 -0.03125 5.84375 -0.03125 C 6.265625 -0.03125 6.734375 -0.015625 7.140625 0 L 7.140625 -0.3125 L 6.96875 -0.3125 C 6.375 -0.3125 6.234375 -0.375 6.125 -0.703125 Z M 3.4375 -5.828125 L 4.5625 -2.578125 L 2.328125 -2.578125 Z M 3.4375 -5.828125"/>
    <path transform="matrix(1 0 0 1 49.12495 148.999)" d="M 2.875 -2.5 C 2.875 -3.265625 2.765625 -4.46875 2.21875 -5.609375 C 1.625 -6.828125 0.765625 -7.484375 0.671875 -7.484375 C 0.609375 -7.484375 0.5625 -7.4375 0.5625 -7.375 C 0.5625 -7.34375 0.5625 -7.328125 0.75 -7.140625 C 1.734375 -6.15625 2.296875 -4.578125 2.296875 -2.5 C 2.296875 -0.78125 1.9375 0.96875 0.703125 2.21875 C 0.5625 2.34375 0.5625 2.359375 0.5625 2.390625 C 0.5625 2.453125 0.609375 2.5 0.671875 2.5 C 0.765625 2.5 1.671875 1.8125 2.25 0.546875 C 2.765625 -0.546875 2.875 -1.65625 2.875 -2.5 Z M 2.875 -2.5"/>
    <path transform="matrix(1 0 0 1 141 132.996)" d="M 4.671875 -3.703125 C 4.671875 -4.25 4.40625 -4.40625 4.234375 -4.40625 C 3.984375 -4.40625 3.734375 -4.140625 3.734375 -3.921875 C 3.734375 -3.796875 3.78125 -3.734375 3.890625 -3.625 C 4.109375 -3.421875 4.234375 -3.171875 4.234375 -2.8125 C 4.234375 -2.390625 3.625 -0.109375 2.46875 -0.109375 C 1.953125 -0.109375 1.71875 -0.453125 1.71875 -0.984375 C 1.71875 -1.53125 2 -2.265625 2.296875 -3.09375 C 2.375 -3.265625 2.421875 -3.40625 2.421875 -3.59375 C 2.421875 -4.03125 2.109375 -4.40625 1.609375 -4.40625 C 0.671875 -4.40625 0.296875 -2.953125 0.296875 -2.875 C 0.296875 -2.765625 0.390625 -2.765625 0.40625 -2.765625 C 0.515625 -2.765625 0.515625 -2.796875 0.5625 -2.953125 C 0.859375 -3.953125 1.28125 -4.1875 1.578125 -4.1875 C 1.65625 -4.1875 1.828125 -4.1875 1.828125 -3.875 C 1.828125 -3.625 1.71875 -3.34375 1.65625 -3.171875 C 1.21875 -2.015625 1.09375 -1.5625 1.09375 -1.125 C 1.09375 -0.046875 1.96875 0.109375 2.421875 0.109375 C 4.09375 0.109375 4.671875 -3.1875 4.671875 -3.703125 Z M 4.671875 -3.703125"/>
    <path transform="matrix(1 0 0 1 145.829 134.49)" d="M 1.3125 -0.546875 C 1.265625 -0.3125 1.25 -0.25 0.703125 -0.25 C 0.578125 -0.25 0.5 -0.25 0.5 -0.09375 C 0.5 0 0.578125 0 0.703125 0 L 3.1875 0 C 4.734375 0 6.21875 -1.421875 6.21875 -2.9375 C 6.21875 -3.953125 5.515625 -4.765625 4.390625 -4.765625 L 1.84375 -4.765625 C 1.703125 -4.765625 1.625 -4.765625 1.625 -4.609375 C 1.625 -4.515625 1.703125 -4.515625 1.859375 -4.515625 C 1.96875 -4.515625 2 -4.515625 2.125 -4.5 C 2.265625 -4.484375 2.265625 -4.46875 2.265625 -4.390625 C 2.265625 -4.390625 2.265625 -4.34375 2.25 -4.25 Z M 2.875 -4.265625 C 2.9375 -4.484375 2.9375 -4.515625 3.234375 -4.515625 L 4.125 -4.515625 C 4.90625 -4.515625 5.5625 -4.125 5.5625 -3.171875 C 5.5625 -3.015625 5.484375 -1.8125 4.796875 -1.015625 C 4.515625 -0.703125 3.921875 -0.25 3.0625 -0.25 L 2.125 -0.25 C 1.90625 -0.25 1.890625 -0.265625 1.890625 -0.328125 C 1.890625 -0.328125 1.890625 -0.359375 1.921875 -0.46875 Z M 2.875 -4.265625"/>
    <path transform="matrix(1 0 0 1 65 8.996)" d="M 2.828125 -6.234375 C 2.828125 -6.4375 2.6875 -6.59375 2.46875 -6.59375 C 2.1875 -6.59375 1.921875 -6.328125 1.921875 -6.0625 C 1.921875 -5.875 2.0625 -5.703125 2.296875 -5.703125 C 2.53125 -5.703125 2.828125 -5.9375 2.828125 -6.234375 Z M 2.078125 -2.484375 C 2.1875 -2.765625 2.1875 -2.796875 2.296875 -3.0625 C 2.375 -3.265625 2.421875 -3.40625 2.421875 -3.59375 C 2.421875 -4.03125 2.109375 -4.40625 1.609375 -4.40625 C 0.671875 -4.40625 0.296875 -2.953125 0.296875 -2.875 C 0.296875 -2.765625 0.390625 -2.765625 0.40625 -2.765625 C 0.515625 -2.765625 0.515625 -2.796875 0.5625 -2.953125 C 0.84375 -3.890625 1.234375 -4.1875 1.578125 -4.1875 C 1.65625 -4.1875 1.828125 -4.1875 1.828125 -3.875 C 1.828125 -3.65625 1.75 -3.453125 1.71875 -3.34375 C 1.640625 -3.09375 1.1875 -1.9375 1.03125 -1.5 C 0.921875 -1.25 0.796875 -0.921875 0.796875 -0.703125 C 0.796875 -0.234375 1.140625 0.109375 1.609375 0.109375 C 2.546875 0.109375 2.921875 -1.328125 2.921875 -1.421875 C 2.921875 -1.53125 2.828125 -1.53125 2.796875 -1.53125 C 2.703125 -1.53125 2.703125 -1.5 2.65625 -1.34375 C 2.46875 -0.71875 2.140625 -0.109375 1.640625 -0.109375 C 1.46875 -0.109375 1.390625 -0.203125 1.390625 -0.4375 C 1.390625 -0.6875 1.453125 -0.828125 1.6875 -1.4375 Z M 2.078125 -2.484375"/>
    <path transform="matrix(1 0 0 1 68.432 10.49)" d="M 1.3125 -0.546875 C 1.265625 -0.3125 1.25 -0.25 0.703125 -0.25 C 0.578125 -0.25 0.5 -0.25 0.5 -0.09375 C 0.5 0 0.578125 0 0.703125 0 L 3.1875 0 C 4.734375 0 6.21875 -1.421875 6.21875 -2.9375 C 6.21875 -3.953125 5.515625 -4.765625 4.390625 -4.765625 L 1.84375 -4.765625 C 1.703125 -4.765625 1.625 -4.765625 1.625 -4.609375 C 1.625 -4.515625 1.703125 -4.515625 1.859375 -4.515625 C 1.96875 -4.515625 2 -4.515625 2.125 -4.5 C 2.265625 -4.484375 2.265625 -4.46875 2.265625 -4.390625 C 2.265625 -4.390625 2.265625 -4.34375 2.25 -4.25 Z M 2.875 -4.265625 C 2.9375 -4.484375 2.9375 -4.515625 3.234375 -4.515625 L 4.125 -4.515625 C 4.90625 -4.515625 5.5625 -4.125 5.5625 -3.171875 C 5.5625 -3.015625 5.484375 -1.8125 4.796875 -1.015625 C 4.515625 -0.703125 3.921875 -0.25 3.0625 -0.25 L 2.125 -0.25 C 1.90625 -0.25 1.890625 -0.265625 1.890625 -0.328125 C 1.890625 -0.328125 1.890625 -0.359375 1.921875 -0.46875 Z M 2.875 -4.265625"/>
    <path transform="matrix(1 0 0 1 83.846 146.977)" d="M 3.953125 -2.90625 C 3.953125 -3.515625 3.609375 -3.515625 3.5625 -3.515625 C 3.375 -3.515625 3.15625 -3.3125 3.15625 -3.109375 C 3.15625 -2.984375 3.21875 -2.921875 3.296875 -2.859375 C 3.46875 -2.703125 3.578125 -2.484375 3.578125 -2.21875 C 3.578125 -1.859375 3.0625 -0.140625 2.140625 -0.140625 C 1.796875 -0.140625 1.515625 -0.328125 1.515625 -0.828125 C 1.515625 -1.265625 1.765625 -1.890625 1.953125 -2.375 C 2.046875 -2.625 2.078125 -2.6875 2.078125 -2.84375 C 2.078125 -3.265625 1.71875 -3.515625 1.359375 -3.515625 C 0.5625 -3.515625 0.234375 -2.390625 0.234375 -2.296875 C 0.234375 -2.21875 0.296875 -2.1875 0.359375 -2.1875 C 0.46875 -2.1875 0.46875 -2.234375 0.5 -2.3125 C 0.703125 -3.015625 1.046875 -3.296875 1.328125 -3.296875 C 1.453125 -3.296875 1.515625 -3.21875 1.515625 -3.03125 C 1.515625 -2.84375 1.453125 -2.65625 1.375 -2.46875 C 0.984375 -1.453125 0.953125 -1.1875 0.953125 -0.953125 C 0.953125 -0.078125 1.65625 0.078125 2.109375 0.078125 C 3.4375 0.078125 3.953125 -2.296875 3.953125 -2.90625 Z M 3.953125 -2.90625"/>
    <path transform="matrix(1 0 0 1 87.969 148.317)" d="M 1.25 -0.5 C 1.203125 -0.28125 1.1875 -0.234375 0.734375 -0.234375 C 0.609375 -0.234375 0.59375 -0.234375 0.5625 -0.21875 C 0.53125 -0.203125 0.515625 -0.125 0.515625 -0.078125 C 0.53125 0 0.59375 0 0.703125 0 L 2.953125 0 C 4.3125 0 5.65625 -1.171875 5.65625 -2.5 C 5.65625 -3.453125 4.953125 -4.09375 3.96875 -4.09375 L 1.6875 -4.09375 C 1.5625 -4.09375 1.484375 -4.09375 1.484375 -3.9375 C 1.484375 -3.84375 1.5625 -3.84375 1.671875 -3.84375 C 1.78125 -3.84375 1.9375 -3.84375 2.0625 -3.8125 C 2.0625 -3.75 2.0625 -3.703125 2.03125 -3.609375 Z M 2.609375 -3.640625 C 2.65625 -3.84375 2.65625 -3.84375 2.90625 -3.84375 L 3.75 -3.84375 C 4.453125 -3.84375 5.0625 -3.515625 5.0625 -2.6875 C 5.0625 -2.484375 4.984375 -1.53125 4.40625 -0.890625 C 4.09375 -0.546875 3.546875 -0.234375 2.84375 -0.234375 L 1.96875 -0.234375 C 1.84375 -0.234375 1.84375 -0.234375 1.765625 -0.25 Z M 2.609375 -3.640625"/>
    <path transform="matrix(1 0 0 1 94.629 146.977)" d="M 2.65625 1.984375 C 2.71875 1.984375 2.8125 1.984375 2.8125 1.890625 C 2.8125 1.859375 2.8125 1.859375 2.703125 1.75 C 1.609375 0.71875 1.34375 -0.75 1.34375 -1.984375 C 1.34375 -4.28125 2.28125 -5.359375 2.6875 -5.734375 C 2.8125 -5.828125 2.8125 -5.84375 2.8125 -5.875 C 2.8125 -5.921875 2.78125 -5.96875 2.703125 -5.96875 C 2.578125 -5.96875 2.171875 -5.5625 2.109375 -5.5 C 1.046875 -4.375 0.828125 -2.953125 0.828125 -1.984375 C 0.828125 -0.203125 1.5625 1.234375 2.65625 1.984375 Z M 2.65625 1.984375"/>
    <path transform="matrix(1 0 0 1 97.920651 146.977)" d="M 3.984375 -1.703125 C 3.984375 -2.6875 3.15625 -3.546875 2.109375 -3.546875 C 1.0625 -3.546875 0.234375 -2.6875 0.234375 -1.703125 C 0.234375 -0.703125 1.09375 0.078125 2.109375 0.078125 C 3.140625 0.078125 3.984375 -0.703125 3.984375 -1.703125 Z M 2.109375 -0.171875 C 1.6875 -0.171875 1.34375 -0.375 1.171875 -0.65625 C 0.96875 -0.984375 0.953125 -1.375 0.953125 -1.765625 C 0.953125 -2.078125 0.953125 -2.546875 1.1875 -2.890625 C 1.40625 -3.171875 1.734375 -3.328125 2.109375 -3.328125 C 2.53125 -3.328125 2.875 -3.125 3.046875 -2.859375 C 3.265625 -2.515625 3.28125 -2.09375 3.28125 -1.765625 C 3.28125 -1.40625 3.265625 -0.96875 3.03125 -0.625 C 2.828125 -0.3125 2.46875 -0.171875 2.109375 -0.171875 Z M 2.109375 -0.171875"/>
    <path transform="matrix(1 0 0 1 102.152774 146.977)" d="M 3.875 -2.421875 C 3.875 -3.078125 3.5625 -3.515625 2.734375 -3.515625 C 1.9375 -3.515625 1.578125 -2.9375 1.484375 -2.75 L 1.484375 -3.515625 L 0.328125 -3.421875 L 0.328125 -3.15625 C 0.875 -3.15625 0.9375 -3.109375 0.9375 -2.71875 L 0.9375 -0.625 C 0.9375 -0.265625 0.84375 -0.265625 0.328125 -0.265625 L 0.328125 0 C 0.671875 -0.03125 1.015625 -0.03125 1.234375 -0.03125 C 1.46875 -0.03125 1.796875 -0.03125 2.140625 0 L 2.140625 -0.265625 C 1.640625 -0.265625 1.53125 -0.265625 1.53125 -0.625 L 1.53125 -2.0625 C 1.53125 -2.90625 2.171875 -3.296875 2.65625 -3.296875 C 3.140625 -3.296875 3.265625 -2.953125 3.265625 -2.453125 L 3.265625 -0.625 C 3.265625 -0.265625 3.171875 -0.265625 2.65625 -0.265625 L 2.65625 0 C 3 -0.03125 3.359375 -0.03125 3.5625 -0.03125 C 3.796875 -0.03125 4.140625 -0.03125 4.484375 0 L 4.484375 -0.265625 C 3.96875 -0.265625 3.875 -0.265625 3.875 -0.625 Z M 3.875 -2.421875"/>
    <path transform="matrix(1 0 0 1 106.855133 146.977)" d="M 2.46875 -1.984375 C 2.46875 -2.75 2.328125 -3.65625 1.84375 -4.59375 C 1.453125 -5.328125 0.71875 -5.96875 0.578125 -5.96875 C 0.5 -5.96875 0.484375 -5.921875 0.484375 -5.875 C 0.484375 -5.84375 0.484375 -5.828125 0.578125 -5.734375 C 1.6875 -4.671875 1.9375 -3.21875 1.9375 -1.984375 C 1.9375 0.296875 1 1.375 0.59375 1.75 C 0.484375 1.84375 0.484375 1.859375 0.484375 1.890625 C 0.484375 1.9375 0.5 1.984375 0.578125 1.984375 C 0.703125 1.984375 1.109375 1.578125 1.171875 1.515625 C 2.234375 0.390625 2.46875 -1.03125 2.46875 -1.984375 Z M 2.46875 -1.984375"/>
    <path fill="none" stroke="#000000" stroke-miterlimit="10" stroke-width="0.4" stroke-linejoin="round" transform="matrix(1 0 0 -1 -111 661)" d="M 192 528 L 192 524"/>
    <path fill="none" stroke="#000000" stroke-miterlimit="10" stroke-width="0.8" stroke-linejoin="round" transform="matrix(1 0 0 -1 -111 661)" d="M 208 528 L 208 520"/>
    <path fill="none" stroke="#000000" stroke-miterlimit="10" stroke-width="0.4" stroke-linejoin="round" transform="matrix(1 0 0 -1 -111 661)" d="M 224 528 L 224 524"/>
    <path fill="none" stroke="#000000" stroke-miterlimit="10" stroke-width="0.4" stroke-linejoin="round" transform="matrix(1 0 0 -1 -111 661)" d="M 112 528 L 248 528"/>
    <path fill-rule="evenodd" stroke="#000000" stroke-miterlimit="10" stroke-width="0.4" stroke-linejoin="round" transform="matrix(1 0 0 -1 -111 661)" d="M 248 528 L 241 530.332031 L 242.398438 528 L 241 525.667969 Z M 248 528"/>
    <path fill-rule="evenodd" stroke="#000000" stroke-miterlimit="10" stroke-width="0.4" stroke-linejoin="round" transform="matrix(1 0 0 -1 -111 661)" d="M 112 528 L 119 525.667969 L 117.601562 528 L 119 530.332031 Z M 112 528"/>
    <path fill="none" stroke="#000000" stroke-miterlimit="10" stroke-width="0.4" stroke-linejoin="round" transform="matrix(1 0 0 -1 -111 661)" d="M 176 648 L 176 504"/>
    <path fill-rule="evenodd" stroke="#000000" stroke-miterlimit="10" stroke-width="0.4" stroke-linejoin="round" transform="matrix(1 0 0 -1 -111 661)" d="M 176 504 L 178.332031 511 L 176 509.601562 L 173.667969 511 Z M 176 504"/>
    <path fill-rule="evenodd" stroke="#000000" stroke-miterlimit="10" stroke-width="0.4" stroke-linejoin="round" transform="matrix(1 0 0 -1 -111 661)" d="M 176 648 L 173.667969 641 L 176 642.398438 L 178.332031 641 Z M 176 648"/>
    <path fill="none" stroke="#ff0000" stroke-miterlimit="10" stroke-width="2" stroke-linejoin="round" transform="matrix(1 0 0 -1 -111 661)" d="M 124 528 L 176 528 L 176 636"/>
    <path fill="#ff0000" fill-rule="evenodd" stroke="#ff0000" stroke-miterlimit="10" stroke-width="2" stroke-linejoin="round" transform="matrix(1 0 0 -1 -111 661)" d="M 176 636 L 173.667969 629 L 178.332031 629 Z M 176 636"/>
    <path fill="#ff0000" fill-rule="evenodd" stroke="#ff0000" stroke-miterlimit="10" stroke-width="2" stroke-linejoin="round" transform="matrix(1 0 0 -1 -111 661)" d="M 124 528 L 131 525.667969 L 131 530.332031 Z M 124 528"/>
    <path fill="none" stroke="#0000ff" stroke-miterlimit="10" stroke-width="2" stroke-linejoin="round" transform="matrix(1 0 0 -1 -111 661)" d="M 140 528 L 208 528 L 208 636"/>
    <path fill="#0000ff" fill-rule="evenodd" stroke="#0000ff" stroke-miterlimit="10" stroke-width="2" stroke-linejoin="round" transform="matrix(1 0 0 -1 -111 661)" d="M 208 636 L 205.667969 629 L 210.332031 629 Z M 208 636"/>
    <path fill="#0000ff" fill-rule="evenodd" stroke="#0000ff" stroke-miterlimit="10" stroke-width="2" stroke-linejoin="round" transform="matrix(1 0 0 -1 -111 661)" d="M 140 528 L 147 525.667969 L 147 530.332031 Z M 140 528"/>
    <path fill="#0000ff" transform="matrix(1 0 0 1 125 88.993)" d="M 1.171875 -2.171875 C 1.171875 -3.796875 1.984375 -4.21875 2.515625 -4.21875 C 2.609375 -4.21875 3.234375 -4.203125 3.578125 -3.84375 C 3.171875 -3.8125 3.109375 -3.515625 3.109375 -3.390625 C 3.109375 -3.125 3.296875 -2.9375 3.5625 -2.9375 C 3.828125 -2.9375 4.03125 -3.09375 4.03125 -3.40625 C 4.03125 -4.078125 3.265625 -4.46875 2.5 -4.46875 C 1.25 -4.46875 0.34375 -3.390625 0.34375 -2.15625 C 0.34375 -0.875 1.328125 0.109375 2.484375 0.109375 C 3.8125 0.109375 4.140625 -1.09375 4.140625 -1.1875 C 4.140625 -1.28125 4.03125 -1.28125 4 -1.28125 C 3.921875 -1.28125 3.890625 -1.25 3.875 -1.1875 C 3.59375 -0.265625 2.9375 -0.140625 2.578125 -0.140625 C 2.046875 -0.140625 1.171875 -0.5625 1.171875 -2.171875 Z M 1.171875 -2.171875"/>
    <path fill="#0000ff" transform="matrix(1 0 0 1 129.423394 88.993)" d="M 4.6875 -2.140625 C 4.6875 -3.40625 3.703125 -4.46875 2.5 -4.46875 C 1.25 -4.46875 0.28125 -3.375 0.28125 -2.140625 C 0.28125 -0.84375 1.3125 0.109375 2.484375 0.109375 C 3.6875 0.109375 4.6875 -0.875 4.6875 -2.140625 Z M 2.5 -0.140625 C 2.0625 -0.140625 1.625 -0.34375 1.359375 -0.8125 C 1.109375 -1.25 1.109375 -1.859375 1.109375 -2.21875 C 1.109375 -2.609375 1.109375 -3.140625 1.34375 -3.578125 C 1.609375 -4.03125 2.078125 -4.25 2.484375 -4.25 C 2.921875 -4.25 3.34375 -4.03125 3.609375 -3.59375 C 3.875 -3.171875 3.875 -2.59375 3.875 -2.21875 C 3.875 -1.859375 3.875 -1.3125 3.65625 -0.875 C 3.421875 -0.421875 2.984375 -0.140625 2.5 -0.140625 Z M 2.5 -0.140625"/>
    <path fill="#0000ff" transform="matrix(1 0 0 1 134.404694 88.993)" d="M 1.09375 -3.421875 L 1.09375 -0.75 C 1.09375 -0.3125 0.984375 -0.3125 0.3125 -0.3125 L 0.3125 0 C 0.671875 -0.015625 1.171875 -0.03125 1.453125 -0.03125 C 1.703125 -0.03125 2.21875 -0.015625 2.5625 0 L 2.5625 -0.3125 C 1.890625 -0.3125 1.78125 -0.3125 1.78125 -0.75 L 1.78125 -2.59375 C 1.78125 -3.625 2.5 -4.1875 3.125 -4.1875 C 3.765625 -4.1875 3.875 -3.65625 3.875 -3.078125 L 3.875 -0.75 C 3.875 -0.3125 3.765625 -0.3125 3.09375 -0.3125 L 3.09375 0 C 3.4375 -0.015625 3.953125 -0.03125 4.21875 -0.03125 C 4.46875 -0.03125 5 -0.015625 5.328125 0 L 5.328125 -0.3125 C 4.8125 -0.3125 4.5625 -0.3125 4.5625 -0.609375 L 4.5625 -2.515625 C 4.5625 -3.375 4.5625 -3.671875 4.25 -4.03125 C 4.109375 -4.203125 3.78125 -4.40625 3.203125 -4.40625 C 2.46875 -4.40625 2 -3.984375 1.71875 -3.359375 L 1.71875 -4.40625 L 0.3125 -4.296875 L 0.3125 -3.984375 C 1.015625 -3.984375 1.09375 -3.921875 1.09375 -3.421875 Z M 1.09375 -3.421875"/>
    <path fill="#0000ff" transform="matrix(1 0 0 1 139.933937 88.993)" d="M 2.078125 -1.9375 C 2.296875 -1.890625 3.109375 -1.734375 3.109375 -1.015625 C 3.109375 -0.515625 2.765625 -0.109375 1.984375 -0.109375 C 1.140625 -0.109375 0.78125 -0.671875 0.59375 -1.53125 C 0.5625 -1.65625 0.5625 -1.6875 0.453125 -1.6875 C 0.328125 -1.6875 0.328125 -1.625 0.328125 -1.453125 L 0.328125 -0.125 C 0.328125 0.046875 0.328125 0.109375 0.4375 0.109375 C 0.484375 0.109375 0.5 0.09375 0.6875 -0.09375 C 0.703125 -0.109375 0.703125 -0.125 0.890625 -0.3125 C 1.328125 0.09375 1.78125 0.109375 1.984375 0.109375 C 3.125 0.109375 3.59375 -0.5625 3.59375 -1.28125 C 3.59375 -1.796875 3.296875 -2.109375 3.171875 -2.21875 C 2.84375 -2.546875 2.453125 -2.625 2.03125 -2.703125 C 1.46875 -2.8125 0.8125 -2.9375 0.8125 -3.515625 C 0.8125 -3.875 1.0625 -4.28125 1.921875 -4.28125 C 3.015625 -4.28125 3.078125 -3.375 3.09375 -3.078125 C 3.09375 -2.984375 3.1875 -2.984375 3.203125 -2.984375 C 3.34375 -2.984375 3.34375 -3.03125 3.34375 -3.21875 L 3.34375 -4.234375 C 3.34375 -4.390625 3.34375 -4.46875 3.234375 -4.46875 C 3.1875 -4.46875 3.15625 -4.46875 3.03125 -4.34375 C 3 -4.3125 2.90625 -4.21875 2.859375 -4.1875 C 2.484375 -4.46875 2.078125 -4.46875 1.921875 -4.46875 C 0.703125 -4.46875 0.328125 -3.796875 0.328125 -3.234375 C 0.328125 -2.890625 0.484375 -2.609375 0.75 -2.390625 C 1.078125 -2.140625 1.359375 -2.078125 2.078125 -1.9375 Z M 2.078125 -1.9375"/>
    <path fill="#0000ff" transform="matrix(1 0 0 1 143.859202 88.993)" d="M 1.71875 -3.984375 L 3.15625 -3.984375 L 3.15625 -4.296875 L 1.71875 -4.296875 L 1.71875 -6.125 L 1.46875 -6.125 C 1.46875 -5.3125 1.171875 -4.25 0.1875 -4.203125 L 0.1875 -3.984375 L 1.03125 -3.984375 L 1.03125 -1.234375 C 1.03125 -0.015625 1.96875 0.109375 2.328125 0.109375 C 3.03125 0.109375 3.3125 -0.59375 3.3125 -1.234375 L 3.3125 -1.796875 L 3.0625 -1.796875 L 3.0625 -1.25 C 3.0625 -0.515625 2.765625 -0.140625 2.390625 -0.140625 C 1.71875 -0.140625 1.71875 -1.046875 1.71875 -1.21875 Z M 1.71875 -3.984375"/>
    <path fill="#0000ff" transform="matrix(1 0 0 1 147.724691 88.993)" d="M 3.3125 -0.75 C 3.359375 -0.359375 3.625 0.0625 4.09375 0.0625 C 4.3125 0.0625 4.921875 -0.078125 4.921875 -0.890625 L 4.921875 -1.453125 L 4.671875 -1.453125 L 4.671875 -0.890625 C 4.671875 -0.3125 4.421875 -0.25 4.3125 -0.25 C 3.984375 -0.25 3.9375 -0.703125 3.9375 -0.75 L 3.9375 -2.734375 C 3.9375 -3.15625 3.9375 -3.546875 3.578125 -3.921875 C 3.1875 -4.3125 2.6875 -4.46875 2.21875 -4.46875 C 1.390625 -4.46875 0.703125 -4 0.703125 -3.34375 C 0.703125 -3.046875 0.90625 -2.875 1.171875 -2.875 C 1.453125 -2.875 1.625 -3.078125 1.625 -3.328125 C 1.625 -3.453125 1.578125 -3.78125 1.109375 -3.78125 C 1.390625 -4.140625 1.875 -4.25 2.1875 -4.25 C 2.6875 -4.25 3.25 -3.859375 3.25 -2.96875 L 3.25 -2.609375 C 2.734375 -2.578125 2.046875 -2.546875 1.421875 -2.25 C 0.671875 -1.90625 0.421875 -1.390625 0.421875 -0.953125 C 0.421875 -0.140625 1.390625 0.109375 2.015625 0.109375 C 2.671875 0.109375 3.125 -0.296875 3.3125 -0.75 Z M 3.25 -2.390625 L 3.25 -1.390625 C 3.25 -0.453125 2.53125 -0.109375 2.078125 -0.109375 C 1.59375 -0.109375 1.1875 -0.453125 1.1875 -0.953125 C 1.1875 -1.5 1.609375 -2.328125 3.25 -2.390625 Z M 3.25 -2.390625"/>
    <path fill="#0000ff" transform="matrix(1 0 0 1 152.705991 88.993)" d="M 1.09375 -3.421875 L 1.09375 -0.75 C 1.09375 -0.3125 0.984375 -0.3125 0.3125 -0.3125 L 0.3125 0 C 0.671875 -0.015625 1.171875 -0.03125 1.453125 -0.03125 C 1.703125 -0.03125 2.21875 -0.015625 2.5625 0 L 2.5625 -0.3125 C 1.890625 -0.3125 1.78125 -0.3125 1.78125 -0.75 L 1.78125 -2.59375 C 1.78125 -3.625 2.5 -4.1875 3.125 -4.1875 C 3.765625 -4.1875 3.875 -3.65625 3.875 -3.078125 L 3.875 -0.75 C 3.875 -0.3125 3.765625 -0.3125 3.09375 -0.3125 L 3.09375 0 C 3.4375 -0.015625 3.953125 -0.03125 4.21875 -0.03125 C 4.46875 -0.03125 5 -0.015625 5.328125 0 L 5.328125 -0.3125 C 4.8125 -0.3125 4.5625 -0.3125 4.5625 -0.609375 L 4.5625 -2.515625 C 4.5625 -3.375 4.5625 -3.671875 4.25 -4.03125 C 4.109375 -4.203125 3.78125 -4.40625 3.203125 -4.40625 C 2.46875 -4.40625 2 -3.984375 1.71875 -3.359375 L 1.71875 -4.40625 L 0.3125 -4.296875 L 0.3125 -3.984375 C 1.015625 -3.984375 1.09375 -3.921875 1.09375 -3.421875 Z M 1.09375 -3.421875"/>
    <path fill="#0000ff" transform="matrix(1 0 0 1 157.956281 88.993)" d="M 1.71875 -3.984375 L 3.15625 -3.984375 L 3.15625 -4.296875 L 1.71875 -4.296875 L 1.71875 -6.125 L 1.46875 -6.125 C 1.46875 -5.3125 1.171875 -4.25 0.1875 -4.203125 L 0.1875 -3.984375 L 1.03125 -3.984375 L 1.03125 -1.234375 C 1.03125 -0.015625 1.96875 0.109375 2.328125 0.109375 C 3.03125 0.109375 3.3125 -0.59375 3.3125 -1.234375 L 3.3125 -1.796875 L 3.0625 -1.796875 L 3.0625 -1.25 C 3.0625 -0.515625 2.765625 -0.140625 2.390625 -0.140625 C 1.71875 -0.140625 1.71875 -1.046875 1.71875 -1.21875 Z M 1.71875 -3.984375"/>
    <path fill="#0000ff" transform="matrix(1 0 0 1 161.82177 88.993)" d="M 2.75 -1.859375 L 2.75 -2.4375 L 0.109375 -2.4375 L 0.109375 -1.859375 Z M 2.75 -1.859375"/>
    <path fill="#0000ff" transform="matrix(1 0 0 1 165.139315 88.993)" d="M 4.140625 -3.3125 C 4.234375 -3.546875 4.40625 -3.984375 5.0625 -3.984375 L 5.0625 -4.296875 C 4.828125 -4.28125 4.546875 -4.265625 4.3125 -4.265625 C 4.078125 -4.265625 3.625 -4.28125 3.453125 -4.296875 L 3.453125 -3.984375 C 3.8125 -3.984375 3.921875 -3.75 3.921875 -3.5625 C 3.921875 -3.46875 3.90625 -3.421875 3.875 -3.3125 L 2.84375 -0.78125 L 1.734375 -3.5625 C 1.671875 -3.6875 1.671875 -3.703125 1.671875 -3.734375 C 1.671875 -3.984375 2.0625 -3.984375 2.25 -3.984375 L 2.25 -4.296875 C 1.9375 -4.28125 1.390625 -4.265625 1.15625 -4.265625 C 0.890625 -4.265625 0.484375 -4.28125 0.1875 -4.296875 L 0.1875 -3.984375 C 0.8125 -3.984375 0.859375 -3.921875 0.984375 -3.625 L 2.421875 -0.078125 C 2.484375 0.0625 2.5 0.109375 2.625 0.109375 C 2.765625 0.109375 2.796875 0.015625 2.84375 -0.078125 Z M 4.140625 -3.3125"/>
    <path fill="#0000ff" transform="matrix(1 0 0 1 170.110653 88.993)" d="M 4.6875 -2.140625 C 4.6875 -3.40625 3.703125 -4.46875 2.5 -4.46875 C 1.25 -4.46875 0.28125 -3.375 0.28125 -2.140625 C 0.28125 -0.84375 1.3125 0.109375 2.484375 0.109375 C 3.6875 0.109375 4.6875 -0.875 4.6875 -2.140625 Z M 2.5 -0.140625 C 2.0625 -0.140625 1.625 -0.34375 1.359375 -0.8125 C 1.109375 -1.25 1.109375 -1.859375 1.109375 -2.21875 C 1.109375 -2.609375 1.109375 -3.140625 1.34375 -3.578125 C 1.609375 -4.03125 2.078125 -4.25 2.484375 -4.25 C 2.921875 -4.25 3.34375 -4.03125 3.609375 -3.59375 C 3.875 -3.171875 3.875 -2.59375 3.875 -2.21875 C 3.875 -1.859375 3.875 -1.3125 3.65625 -0.875 C 3.421875 -0.421875 2.984375 -0.140625 2.5 -0.140625 Z M 2.5 -0.140625"/>
    <path fill="#0000ff" transform="matrix(1 0 0 1 175.091953 88.993)" d="M 1.765625 -6.921875 L 0.328125 -6.8125 L 0.328125 -6.5 C 1.03125 -6.5 1.109375 -6.4375 1.109375 -5.9375 L 1.109375 -0.75 C 1.109375 -0.3125 1 -0.3125 0.328125 -0.3125 L 0.328125 0 C 0.65625 -0.015625 1.1875 -0.03125 1.4375 -0.03125 C 1.6875 -0.03125 2.171875 -0.015625 2.546875 0 L 2.546875 -0.3125 C 1.875 -0.3125 1.765625 -0.3125 1.765625 -0.75 Z M 1.765625 -6.921875"/>
    <path fill="#0000ff" transform="matrix(1 0 0 1 177.851593 88.993)" d="M 1.71875 -3.984375 L 3.15625 -3.984375 L 3.15625 -4.296875 L 1.71875 -4.296875 L 1.71875 -6.125 L 1.46875 -6.125 C 1.46875 -5.3125 1.171875 -4.25 0.1875 -4.203125 L 0.1875 -3.984375 L 1.03125 -3.984375 L 1.03125 -1.234375 C 1.03125 -0.015625 1.96875 0.109375 2.328125 0.109375 C 3.03125 0.109375 3.3125 -0.59375 3.3125 -1.234375 L 3.3125 -1.796875 L 3.0625 -1.796875 L 3.0625 -1.25 C 3.0625 -0.515625 2.765625 -0.140625 2.390625 -0.140625 C 1.71875 -0.140625 1.71875 -1.046875 1.71875 -1.21875 Z M 1.71875 -3.984375"/>
    <path fill="#0000ff" transform="matrix(1 0 0 1 181.717082 88.993)" d="M 3.3125 -0.75 C 3.359375 -0.359375 3.625 0.0625 4.09375 0.0625 C 4.3125 0.0625 4.921875 -0.078125 4.921875 -0.890625 L 4.921875 -1.453125 L 4.671875 -1.453125 L 4.671875 -0.890625 C 4.671875 -0.3125 4.421875 -0.25 4.3125 -0.25 C 3.984375 -0.25 3.9375 -0.703125 3.9375 -0.75 L 3.9375 -2.734375 C 3.9375 -3.15625 3.9375 -3.546875 3.578125 -3.921875 C 3.1875 -4.3125 2.6875 -4.46875 2.21875 -4.46875 C 1.390625 -4.46875 0.703125 -4 0.703125 -3.34375 C 0.703125 -3.046875 0.90625 -2.875 1.171875 -2.875 C 1.453125 -2.875 1.625 -3.078125 1.625 -3.328125 C 1.625 -3.453125 1.578125 -3.78125 1.109375 -3.78125 C 1.390625 -4.140625 1.875 -4.25 2.1875 -4.25 C 2.6875 -4.25 3.25 -3.859375 3.25 -2.96875 L 3.25 -2.609375 C 2.734375 -2.578125 2.046875 -2.546875 1.421875 -2.25 C 0.671875 -1.90625 0.421875 -1.390625 0.421875 -0.953125 C 0.421875 -0.140625 1.390625 0.109375 2.015625 0.109375 C 2.671875 0.109375 3.125 -0.296875 3.3125 -0.75 Z M 3.25 -2.390625 L 3.25 -1.390625 C 3.25 -0.453125 2.53125 -0.109375 2.078125 -0.109375 C 1.59375 -0.109375 1.1875 -0.453125 1.1875 -0.953125 C 1.1875 -1.5 1.609375 -2.328125 3.25 -2.390625 Z M 3.25 -2.390625"/>
    <path fill="#0000ff" transform="matrix(1 0 0 1 186.698382 88.993)" d="M 2.21875 -1.71875 C 1.34375 -1.71875 1.34375 -2.71875 1.34375 -2.9375 C 1.34375 -3.203125 1.359375 -3.53125 1.5 -3.78125 C 1.578125 -3.890625 1.8125 -4.171875 2.21875 -4.171875 C 3.078125 -4.171875 3.078125 -3.1875 3.078125 -2.953125 C 3.078125 -2.6875 3.078125 -2.359375 2.921875 -2.109375 C 2.84375 -2 2.609375 -1.71875 2.21875 -1.71875 Z M 1.0625 -1.328125 C 1.0625 -1.359375 1.0625 -1.59375 1.21875 -1.796875 C 1.609375 -1.515625 2.03125 -1.484375 2.21875 -1.484375 C 3.140625 -1.484375 3.828125 -2.171875 3.828125 -2.9375 C 3.828125 -3.3125 3.671875 -3.671875 3.421875 -3.90625 C 3.78125 -4.25 4.140625 -4.296875 4.3125 -4.296875 C 4.34375 -4.296875 4.390625 -4.296875 4.421875 -4.28125 C 4.3125 -4.25 4.25 -4.140625 4.25 -4.015625 C 4.25 -3.84375 4.390625 -3.734375 4.546875 -3.734375 C 4.640625 -3.734375 4.828125 -3.796875 4.828125 -4.03125 C 4.828125 -4.203125 4.71875 -4.515625 4.328125 -4.515625 C 4.125 -4.515625 3.6875 -4.453125 3.265625 -4.046875 C 2.84375 -4.375 2.4375 -4.40625 2.21875 -4.40625 C 1.28125 -4.40625 0.59375 -3.71875 0.59375 -2.953125 C 0.59375 -2.515625 0.8125 -2.140625 1.0625 -1.921875 C 0.9375 -1.78125 0.75 -1.453125 0.75 -1.09375 C 0.75 -0.78125 0.890625 -0.40625 1.203125 -0.203125 C 0.59375 -0.046875 0.28125 0.390625 0.28125 0.78125 C 0.28125 1.5 1.265625 2.046875 2.484375 2.046875 C 3.65625 2.046875 4.6875 1.546875 4.6875 0.765625 C 4.6875 0.421875 4.5625 -0.09375 4.046875 -0.375 C 3.515625 -0.640625 2.9375 -0.640625 2.328125 -0.640625 C 2.078125 -0.640625 1.65625 -0.640625 1.578125 -0.65625 C 1.265625 -0.703125 1.0625 -1 1.0625 -1.328125 Z M 2.5 1.828125 C 1.484375 1.828125 0.796875 1.3125 0.796875 0.78125 C 0.796875 0.328125 1.171875 -0.046875 1.609375 -0.0625 L 2.203125 -0.0625 C 3.0625 -0.0625 4.171875 -0.0625 4.171875 0.78125 C 4.171875 1.328125 3.46875 1.828125 2.5 1.828125 Z M 2.5 1.828125"/>
    <path fill="#0000ff" transform="matrix(1 0 0 1 191.679682 88.993)" d="M 1.109375 -2.515625 C 1.171875 -4 2.015625 -4.25 2.359375 -4.25 C 3.375 -4.25 3.484375 -2.90625 3.484375 -2.515625 Z M 1.109375 -2.296875 L 3.890625 -2.296875 C 4.109375 -2.296875 4.140625 -2.296875 4.140625 -2.515625 C 4.140625 -3.5 3.59375 -4.46875 2.359375 -4.46875 C 1.203125 -4.46875 0.28125 -3.4375 0.28125 -2.1875 C 0.28125 -0.859375 1.328125 0.109375 2.46875 0.109375 C 3.6875 0.109375 4.140625 -1 4.140625 -1.1875 C 4.140625 -1.28125 4.0625 -1.3125 4 -1.3125 C 3.921875 -1.3125 3.890625 -1.25 3.875 -1.171875 C 3.53125 -0.140625 2.625 -0.140625 2.53125 -0.140625 C 2.03125 -0.140625 1.640625 -0.4375 1.40625 -0.8125 C 1.109375 -1.28125 1.109375 -1.9375 1.109375 -2.296875 Z M 1.109375 -2.296875"/>
    <path transform="matrix(1 0 0 1 101 13.004)" d="M 2.828125 -6.234375 C 2.828125 -6.4375 2.6875 -6.59375 2.46875 -6.59375 C 2.1875 -6.59375 1.921875 -6.328125 1.921875 -6.0625 C 1.921875 -5.875 2.0625 -5.703125 2.296875 -5.703125 C 2.53125 -5.703125 2.828125 -5.9375 2.828125 -6.234375 Z M 2.078125 -2.484375 C 2.1875 -2.765625 2.1875 -2.796875 2.296875 -3.0625 C 2.375 -3.265625 2.421875 -3.40625 2.421875 -3.59375 C 2.421875 -4.03125 2.109375 -4.40625 1.609375 -4.40625 C 0.671875 -4.40625 0.296875 -2.953125 0.296875 -2.875 C 0.296875 -2.765625 0.390625 -2.765625 0.40625 -2.765625 C 0.515625 -2.765625 0.515625 -2.796875 0.5625 -2.953125 C 0.84375 -3.890625 1.234375 -4.1875 1.578125 -4.1875 C 1.65625 -4.1875 1.828125 -4.1875 1.828125 -3.875 C 1.828125 -3.65625 1.75 -3.453125 1.71875 -3.34375 C 1.640625 -3.09375 1.1875 -1.9375 1.03125 -1.5 C 0.921875 -1.25 0.796875 -0.921875 0.796875 -0.703125 C 0.796875 -0.234375 1.140625 0.109375 1.609375 0.109375 C 2.546875 0.109375 2.921875 -1.328125 2.921875 -1.421875 C 2.921875 -1.53125 2.828125 -1.53125 2.796875 -1.53125 C 2.703125 -1.53125 2.703125 -1.5 2.65625 -1.34375 C 2.46875 -0.71875 2.140625 -0.109375 1.640625 -0.109375 C 1.46875 -0.109375 1.390625 -0.203125 1.390625 -0.4375 C 1.390625 -0.6875 1.453125 -0.828125 1.6875 -1.4375 Z M 2.078125 -2.484375"/>
    <path transform="matrix(1 0 0 1 104.432 14.499)" d="M 1.4375 -2.75 L 2.3125 -2.75 L 2.3125 -3 L 1.40625 -3 L 1.40625 -3.78125 C 1.40625 -4.421875 1.78125 -4.703125 2.078125 -4.703125 C 2.140625 -4.703125 2.21875 -4.703125 2.28125 -4.671875 C 2.1875 -4.625 2.125 -4.515625 2.125 -4.390625 C 2.125 -4.203125 2.265625 -4.078125 2.453125 -4.078125 C 2.640625 -4.078125 2.78125 -4.203125 2.78125 -4.390625 C 2.78125 -4.703125 2.46875 -4.90625 2.09375 -4.90625 C 1.546875 -4.90625 0.90625 -4.515625 0.90625 -3.78125 L 0.90625 -3 L 0.3125 -3 L 0.3125 -2.75 L 0.90625 -2.75 L 0.90625 -0.546875 C 0.90625 -0.25 0.84375 -0.25 0.390625 -0.25 L 0.390625 0 C 0.421875 0 0.90625 -0.03125 1.1875 -0.03125 C 1.484375 -0.03125 1.796875 -0.015625 2.09375 0 L 2.09375 -0.25 L 1.953125 -0.25 C 1.4375 -0.25 1.4375 -0.328125 1.4375 -0.5625 Z M 1.4375 -2.75"/>
    <path transform="matrix(1 0 0 1 106.900725 14.499)" d="M 4.875 -2.328125 C 5.015625 -2.671875 5.25 -2.75 5.46875 -2.75 L 5.46875 -3 C 5.28125 -2.984375 5.15625 -2.96875 4.96875 -2.96875 C 4.75 -2.96875 4.484375 -2.984375 4.28125 -3 L 4.28125 -2.75 C 4.515625 -2.75 4.640625 -2.609375 4.640625 -2.453125 C 4.640625 -2.390625 4.640625 -2.375 4.59375 -2.28125 L 3.921875 -0.546875 L 3.171875 -2.453125 C 3.15625 -2.484375 3.140625 -2.53125 3.140625 -2.578125 C 3.140625 -2.734375 3.3125 -2.75 3.515625 -2.75 L 3.515625 -3 C 3.265625 -2.984375 3.015625 -2.96875 2.765625 -2.96875 C 2.5625 -2.96875 2.34375 -2.984375 2.140625 -3 L 2.140625 -2.75 C 2.3125 -2.75 2.453125 -2.75 2.546875 -2.703125 C 2.640625 -2.625 2.703125 -2.390625 2.703125 -2.390625 C 2.703125 -2.375 2.6875 -2.328125 2.671875 -2.3125 L 2.015625 -0.640625 L 1.3125 -2.453125 C 1.28125 -2.546875 1.28125 -2.546875 1.28125 -2.578125 C 1.28125 -2.75 1.53125 -2.75 1.65625 -2.75 L 1.65625 -3 C 1.640625 -3 1.140625 -2.96875 0.859375 -2.96875 C 0.640625 -2.96875 0.421875 -2.984375 0.203125 -3 L 0.203125 -2.75 C 0.484375 -2.75 0.640625 -2.75 0.703125 -2.546875 L 1.671875 -0.09375 C 1.71875 0.015625 1.734375 0.0625 1.875 0.0625 C 2 0.0625 2.015625 0.015625 2.046875 -0.078125 L 2.84375 -2.0625 L 3.609375 -0.09375 C 3.65625 0 3.671875 0.0625 3.8125 0.0625 C 3.9375 0.0625 3.953125 0.015625 4 -0.09375 Z M 4.875 -2.328125"/>
    <path transform="matrix(1 0 0 1 112.584372 14.499)" d="M 2.484375 -4.765625 L 2.484375 -4.515625 C 2.953125 -4.515625 3 -4.453125 3 -4.125 L 3 -2.671875 C 2.75 -2.921875 2.40625 -3.078125 2.03125 -3.078125 C 1.09375 -3.078125 0.328125 -2.375 0.328125 -1.5 C 0.328125 -0.625 1.0625 0.0625 1.9375 0.0625 C 2.515625 0.0625 2.859375 -0.234375 2.96875 -0.359375 L 2.96875 0.0625 L 4.046875 0 L 4.046875 -0.25 C 3.578125 -0.25 3.53125 -0.296875 3.53125 -0.640625 L 3.53125 -4.84375 Z M 2.96875 -0.734375 C 2.796875 -0.40625 2.4375 -0.125 1.984375 -0.125 C 1.59375 -0.125 1.3125 -0.359375 1.171875 -0.5625 C 1.03125 -0.765625 0.953125 -1.046875 0.953125 -1.484375 C 0.953125 -1.65625 0.953125 -2.171875 1.234375 -2.5 C 1.515625 -2.8125 1.859375 -2.875 2.0625 -2.875 C 2.390625 -2.875 2.703125 -2.71875 2.890625 -2.46875 C 2.96875 -2.359375 2.96875 -2.359375 2.96875 -2.21875 Z M 2.96875 -0.734375"/>
    <path transform="matrix(1 0 0 1 117.488 13.004)" d="M 3.296875 2.390625 C 3.296875 2.359375 3.296875 2.34375 3.125 2.171875 C 1.890625 0.921875 1.5625 -0.96875 1.5625 -2.5 C 1.5625 -4.234375 1.9375 -5.96875 3.171875 -7.203125 C 3.296875 -7.328125 3.296875 -7.34375 3.296875 -7.375 C 3.296875 -7.453125 3.265625 -7.484375 3.203125 -7.484375 C 3.09375 -7.484375 2.203125 -6.796875 1.609375 -5.53125 C 1.109375 -4.4375 0.984375 -3.328125 0.984375 -2.5 C 0.984375 -1.71875 1.09375 -0.515625 1.640625 0.625 C 2.25 1.84375 3.09375 2.5 3.203125 2.5 C 3.265625 2.5 3.296875 2.46875 3.296875 2.390625 Z M 3.296875 2.390625"/>
    <path transform="matrix(1 0 0 1 121.353489 13.004)" d="M 1.09375 -3.421875 L 1.09375 -0.75 C 1.09375 -0.3125 0.984375 -0.3125 0.3125 -0.3125 L 0.3125 0 C 0.671875 -0.015625 1.171875 -0.03125 1.453125 -0.03125 C 1.703125 -0.03125 2.21875 -0.015625 2.5625 0 L 2.5625 -0.3125 C 1.890625 -0.3125 1.78125 -0.3125 1.78125 -0.75 L 1.78125 -2.59375 C 1.78125 -3.625 2.5 -4.1875 3.125 -4.1875 C 3.765625 -4.1875 3.875 -3.65625 3.875 -3.078125 L 3.875 -0.75 C 3.875 -0.3125 3.765625 -0.3125 3.09375 -0.3125 L 3.09375 0 C 3.4375 -0.015625 3.953125 -0.03125 4.21875 -0.03125 C 4.46875 -0.03125 5 -0.015625 5.328125 0 L 5.328125 -0.3125 C 4.671875 -0.3125 4.5625 -0.3125 4.5625 -0.75 L 4.5625 -2.59375 C 4.5625 -3.625 5.265625 -4.1875 5.90625 -4.1875 C 6.53125 -4.1875 6.640625 -3.65625 6.640625 -3.078125 L 6.640625 -0.75 C 6.640625 -0.3125 6.53125 -0.3125 5.859375 -0.3125 L 5.859375 0 C 6.203125 -0.015625 6.71875 -0.03125 6.984375 -0.03125 C 7.25 -0.03125 7.765625 -0.015625 8.109375 0 L 8.109375 -0.3125 C 7.59375 -0.3125 7.34375 -0.3125 7.328125 -0.609375 L 7.328125 -2.515625 C 7.328125 -3.375 7.328125 -3.671875 7.015625 -4.03125 C 6.875 -4.203125 6.546875 -4.40625 5.96875 -4.40625 C 5.140625 -4.40625 4.6875 -3.8125 4.53125 -3.421875 C 4.390625 -4.296875 3.65625 -4.40625 3.203125 -4.40625 C 2.46875 -4.40625 2 -3.984375 1.71875 -3.359375 L 1.71875 -4.40625 L 0.3125 -4.296875 L 0.3125 -3.984375 C 1.015625 -3.984375 1.09375 -3.921875 1.09375 -3.421875 Z M 1.09375 -3.421875"/>
    <path transform="matrix(1 0 0 1 129.652335 13.004)" d="M 3.96875 -6.9375 C 3.921875 -7.0625 3.890625 -7.140625 3.734375 -7.140625 C 3.578125 -7.140625 3.546875 -7.078125 3.5 -6.9375 L 1.4375 -0.984375 C 1.25 -0.46875 0.859375 -0.3125 0.3125 -0.3125 L 0.3125 0 C 0.546875 -0.015625 0.984375 -0.03125 1.328125 -0.03125 C 1.640625 -0.03125 2.15625 -0.015625 2.484375 0 L 2.484375 -0.3125 C 1.984375 -0.3125 1.734375 -0.5625 1.734375 -0.8125 C 1.734375 -0.84375 1.75 -0.953125 1.75 -0.96875 L 2.21875 -2.265625 L 4.671875 -2.265625 L 5.203125 -0.75 C 5.21875 -0.703125 5.234375 -0.640625 5.234375 -0.609375 C 5.234375 -0.3125 4.671875 -0.3125 4.40625 -0.3125 L 4.40625 0 C 4.765625 -0.03125 5.46875 -0.03125 5.84375 -0.03125 C 6.265625 -0.03125 6.734375 -0.015625 7.140625 0 L 7.140625 -0.3125 L 6.96875 -0.3125 C 6.375 -0.3125 6.234375 -0.375 6.125 -0.703125 Z M 3.4375 -5.828125 L 4.5625 -2.578125 L 2.328125 -2.578125 Z M 3.4375 -5.828125"/>
    <path transform="matrix(1 0 0 1 137.124285 13.004)" d="M 2.875 -2.5 C 2.875 -3.265625 2.765625 -4.46875 2.21875 -5.609375 C 1.625 -6.828125 0.765625 -7.484375 0.671875 -7.484375 C 0.609375 -7.484375 0.5625 -7.4375 0.5625 -7.375 C 0.5625 -7.34375 0.5625 -7.328125 0.75 -7.140625 C 1.734375 -6.15625 2.296875 -4.578125 2.296875 -2.5 C 2.296875 -0.78125 1.9375 0.96875 0.703125 2.21875 C 0.5625 2.34375 0.5625 2.359375 0.5625 2.390625 C 0.5625 2.453125 0.609375 2.5 0.671875 2.5 C 0.765625 2.5 1.671875 1.8125 2.25 0.546875 C 2.765625 -0.546875 2.875 -1.65625 2.875 -2.5 Z M 2.875 -2.5"/>
    <path transform="matrix(1 0 0 1 143.759376 13.004)" d="M 6.84375 -3.265625 C 7 -3.265625 7.1875 -3.265625 7.1875 -3.453125 C 7.1875 -3.65625 7 -3.65625 6.859375 -3.65625 L 0.890625 -3.65625 C 0.75 -3.65625 0.5625 -3.65625 0.5625 -3.453125 C 0.5625 -3.265625 0.75 -3.265625 0.890625 -3.265625 Z M 6.859375 -1.328125 C 7 -1.328125 7.1875 -1.328125 7.1875 -1.53125 C 7.1875 -1.71875 7 -1.71875 6.84375 -1.71875 L 0.890625 -1.71875 C 0.75 -1.71875 0.5625 -1.71875 0.5625 -1.53125 C 0.5625 -1.328125 0.75 -1.328125 0.890625 -1.328125 Z M 6.859375 -1.328125"/>
    <path transform="matrix(1 0 0 1 154.294 13.004)" d="M 3.734375 -6.046875 C 3.8125 -6.40625 3.84375 -6.5 4.640625 -6.5 C 4.875 -6.5 4.953125 -6.5 4.953125 -6.6875 C 4.953125 -6.8125 4.84375 -6.8125 4.8125 -6.8125 C 4.515625 -6.8125 3.78125 -6.78125 3.484375 -6.78125 C 3.1875 -6.78125 2.46875 -6.8125 2.15625 -6.8125 C 2.09375 -6.8125 1.96875 -6.8125 1.96875 -6.609375 C 1.96875 -6.5 2.046875 -6.5 2.25 -6.5 C 2.65625 -6.5 2.9375 -6.5 2.9375 -6.3125 C 2.9375 -6.265625 2.9375 -6.234375 2.90625 -6.15625 L 1.5625 -0.78125 C 1.46875 -0.40625 1.453125 -0.3125 0.65625 -0.3125 C 0.421875 -0.3125 0.34375 -0.3125 0.34375 -0.109375 C 0.34375 0 0.453125 0 0.484375 0 C 0.78125 0 1.5 -0.03125 1.796875 -0.03125 C 2.09375 -0.03125 2.828125 0 3.125 0 C 3.203125 0 3.328125 0 3.328125 -0.1875 C 3.328125 -0.3125 3.25 -0.3125 3.03125 -0.3125 C 2.84375 -0.3125 2.796875 -0.3125 2.609375 -0.328125 C 2.390625 -0.34375 2.359375 -0.390625 2.359375 -0.5 C 2.359375 -0.578125 2.375 -0.65625 2.390625 -0.734375 Z M 3.734375 -6.046875"/>
    <path transform="matrix(1 0 0 1 158.673 14.499)" d="M 4.953125 -4.8125 C 4.953125 -4.84375 4.921875 -4.90625 4.859375 -4.90625 C 4.8125 -4.90625 4.8125 -4.890625 4.71875 -4.796875 L 4.375 -4.40625 C 4.109375 -4.78125 3.671875 -4.90625 3.25 -4.90625 C 2.265625 -4.90625 1.390625 -4.109375 1.390625 -3.296875 C 1.390625 -3.203125 1.421875 -2.921875 1.625 -2.65625 C 1.859375 -2.390625 2.125 -2.328125 2.59375 -2.203125 C 2.734375 -2.171875 3.078125 -2.09375 3.1875 -2.0625 C 3.40625 -2.015625 3.828125 -1.859375 3.828125 -1.34375 C 3.828125 -0.78125 3.234375 -0.109375 2.453125 -0.109375 C 1.828125 -0.109375 1.09375 -0.328125 1.09375 -1.09375 C 1.09375 -1.171875 1.109375 -1.328125 1.140625 -1.453125 C 1.140625 -1.484375 1.140625 -1.484375 1.140625 -1.484375 C 1.140625 -1.578125 1.0625 -1.578125 1.03125 -1.578125 C 0.9375 -1.578125 0.921875 -1.5625 0.90625 -1.4375 L 0.546875 -0.046875 C 0.53125 -0.015625 0.515625 0.015625 0.515625 0.0625 C 0.515625 0.09375 0.546875 0.140625 0.625 0.140625 C 0.65625 0.140625 0.671875 0.125 0.765625 0.046875 C 0.84375 -0.046875 1.015625 -0.265625 1.09375 -0.34375 C 1.46875 0.0625 2 0.140625 2.421875 0.140625 C 3.484375 0.140625 4.328125 -0.765625 4.328125 -1.59375 C 4.328125 -1.890625 4.203125 -2.171875 4.046875 -2.328125 C 3.8125 -2.578125 3.703125 -2.609375 2.796875 -2.828125 C 2.65625 -2.859375 2.421875 -2.90625 2.359375 -2.9375 C 2.1875 -3 1.890625 -3.171875 1.890625 -3.5625 C 1.890625 -4.125 2.515625 -4.671875 3.234375 -4.671875 C 4 -4.671875 4.359375 -4.25 4.359375 -3.59375 C 4.359375 -3.5 4.328125 -3.34375 4.328125 -3.28125 C 4.328125 -3.171875 4.40625 -3.171875 4.453125 -3.171875 C 4.546875 -3.171875 4.5625 -3.21875 4.578125 -3.328125 Z M 4.953125 -4.8125"/>
    <path transform="matrix(1 0 0 1 166.105 1.946)" d="M 2.25 17.53125 L 4.515625 17.53125 L 4.515625 17.0625 L 2.71875 17.0625 L 2.71875 0.0625 L 4.515625 0.0625 L 4.515625 -0.40625 L 2.25 -0.40625 Z M 2.25 17.53125"/>
    <path transform="matrix(1 0 0 1 170.81 13.004)" d="M 1.109375 -2.515625 C 1.171875 -4 2.015625 -4.25 2.359375 -4.25 C 3.375 -4.25 3.484375 -2.90625 3.484375 -2.515625 Z M 1.109375 -2.296875 L 3.890625 -2.296875 C 4.109375 -2.296875 4.140625 -2.296875 4.140625 -2.515625 C 4.140625 -3.5 3.59375 -4.46875 2.359375 -4.46875 C 1.203125 -4.46875 0.28125 -3.4375 0.28125 -2.1875 C 0.28125 -0.859375 1.328125 0.109375 2.46875 0.109375 C 3.6875 0.109375 4.140625 -1 4.140625 -1.1875 C 4.140625 -1.28125 4.0625 -1.3125 4 -1.3125 C 3.921875 -1.3125 3.890625 -1.25 3.875 -1.171875 C 3.53125 -0.140625 2.625 -0.140625 2.53125 -0.140625 C 2.03125 -0.140625 1.640625 -0.4375 1.40625 -0.8125 C 1.109375 -1.28125 1.109375 -1.9375 1.109375 -2.296875 Z M 1.109375 -2.296875"/>
    <path transform="matrix(1 0 0 1 175.233394 13.004)" d="M 2.859375 -2.34375 C 3.15625 -2.71875 3.53125 -3.203125 3.78125 -3.46875 C 4.09375 -3.828125 4.5 -3.984375 4.96875 -3.984375 L 4.96875 -4.296875 C 4.703125 -4.28125 4.40625 -4.265625 4.140625 -4.265625 C 3.84375 -4.265625 3.3125 -4.28125 3.1875 -4.296875 L 3.1875 -3.984375 C 3.40625 -3.96875 3.484375 -3.84375 3.484375 -3.671875 C 3.484375 -3.515625 3.375 -3.390625 3.328125 -3.328125 L 2.71875 -2.546875 L 1.9375 -3.5625 C 1.84375 -3.65625 1.84375 -3.671875 1.84375 -3.734375 C 1.84375 -3.890625 2 -3.984375 2.1875 -3.984375 L 2.1875 -4.296875 C 1.9375 -4.28125 1.28125 -4.265625 1.109375 -4.265625 C 0.90625 -4.265625 0.4375 -4.28125 0.171875 -4.296875 L 0.171875 -3.984375 C 0.875 -3.984375 0.875 -3.984375 1.34375 -3.375 L 2.328125 -2.09375 L 1.390625 -0.90625 C 0.921875 -0.328125 0.328125 -0.3125 0.125 -0.3125 L 0.125 0 C 0.375 -0.015625 0.6875 -0.03125 0.953125 -0.03125 C 1.234375 -0.03125 1.65625 -0.015625 1.890625 0 L 1.890625 -0.3125 C 1.671875 -0.34375 1.609375 -0.46875 1.609375 -0.625 C 1.609375 -0.84375 1.890625 -1.171875 2.5 -1.890625 L 3.265625 -0.890625 C 3.34375 -0.78125 3.46875 -0.625 3.46875 -0.5625 C 3.46875 -0.46875 3.375 -0.3125 3.109375 -0.3125 L 3.109375 0 C 3.40625 -0.015625 3.96875 -0.03125 4.1875 -0.03125 C 4.453125 -0.03125 4.84375 -0.015625 5.140625 0 L 5.140625 -0.3125 C 4.609375 -0.3125 4.421875 -0.328125 4.203125 -0.625 Z M 2.859375 -2.34375"/>
    <path transform="matrix(1 0 0 1 180.483685 13.004)" d="M 1.71875 -3.75 L 1.71875 -4.40625 L 0.28125 -4.296875 L 0.28125 -3.984375 C 0.984375 -3.984375 1.0625 -3.921875 1.0625 -3.484375 L 1.0625 1.171875 C 1.0625 1.625 0.953125 1.625 0.28125 1.625 L 0.28125 1.9375 C 0.625 1.921875 1.140625 1.90625 1.390625 1.90625 C 1.671875 1.90625 2.171875 1.921875 2.515625 1.9375 L 2.515625 1.625 C 1.859375 1.625 1.75 1.625 1.75 1.171875 L 1.75 -0.59375 C 1.796875 -0.421875 2.21875 0.109375 2.96875 0.109375 C 4.15625 0.109375 5.1875 -0.875 5.1875 -2.15625 C 5.1875 -3.421875 4.234375 -4.40625 3.109375 -4.40625 C 2.328125 -4.40625 1.90625 -3.96875 1.71875 -3.75 Z M 1.75 -1.140625 L 1.75 -3.359375 C 2.03125 -3.875 2.515625 -4.15625 3.03125 -4.15625 C 3.765625 -4.15625 4.359375 -3.28125 4.359375 -2.15625 C 4.359375 -0.953125 3.671875 -0.109375 2.9375 -0.109375 C 2.53125 -0.109375 2.15625 -0.3125 1.890625 -0.71875 C 1.75 -0.921875 1.75 -0.9375 1.75 -1.140625 Z M 1.75 -1.140625"/>
    <path transform="matrix(1 0 0 1 187.691 1.946)" d="M 5.140625 17.421875 C 5.15625 17.4375 5.25 17.53125 5.25 17.53125 L 5.46875 17.53125 C 5.5 17.53125 5.578125 17.53125 5.578125 17.4375 C 5.578125 17.390625 5.5625 17.375 5.546875 17.34375 C 5.1875 16.984375 4.640625 16.4375 4.03125 15.34375 C 2.953125 13.421875 2.546875 10.96875 2.546875 8.578125 C 2.546875 4.140625 3.8125 1.546875 5.546875 -0.21875 C 5.578125 -0.25 5.578125 -0.28125 5.578125 -0.296875 C 5.578125 -0.40625 5.515625 -0.40625 5.390625 -0.40625 C 5.265625 -0.40625 5.25 -0.40625 5.15625 -0.3125 C 4.203125 0.5 3.140625 1.890625 2.453125 3.984375 C 2.03125 5.296875 1.796875 6.90625 1.796875 8.5625 C 1.796875 10.921875 2.21875 13.59375 3.78125 15.90625 C 4.0625 16.296875 4.421875 16.703125 4.421875 16.71875 C 4.53125 16.84375 4.671875 17 4.75 17.0625 Z M 5.140625 17.421875"/>
    <path transform="matrix(1 0 0 1 194.851 8.914)" d="M 3.71875 -2.53125 C 3.71875 -3.078125 3.390625 -3.078125 3.375 -3.078125 C 3.1875 -3.078125 3 -2.890625 3 -2.703125 C 3 -2.59375 3.0625 -2.53125 3.109375 -2.5 C 3.234375 -2.390625 3.375 -2.21875 3.375 -1.9375 C 3.375 -1.625 2.90625 -0.125 2.078125 -0.125 C 1.515625 -0.125 1.515625 -0.625 1.515625 -0.75 C 1.515625 -1.0625 1.640625 -1.453125 1.90625 -2.109375 C 1.953125 -2.25 2 -2.359375 2 -2.46875 C 2 -2.84375 1.6875 -3.078125 1.34375 -3.078125 C 0.640625 -3.078125 0.328125 -2.125 0.328125 -2 C 0.328125 -1.921875 0.421875 -1.921875 0.453125 -1.921875 C 0.546875 -1.921875 0.546875 -1.953125 0.578125 -2.03125 C 0.734375 -2.59375 1.03125 -2.875 1.3125 -2.875 C 1.4375 -2.875 1.484375 -2.796875 1.484375 -2.640625 C 1.484375 -2.46875 1.4375 -2.328125 1.359375 -2.171875 C 1.0625 -1.390625 0.984375 -1.09375 0.984375 -0.84375 C 0.984375 -0.15625 1.53125 0.0625 2.0625 0.0625 C 3.234375 0.0625 3.71875 -1.953125 3.71875 -2.53125 Z M 3.71875 -2.53125"/>
    <path transform="matrix(1 0 0 1 198.836 9.916)" d="M 1.21875 -0.40625 C 1.1875 -0.265625 1.1875 -0.21875 0.796875 -0.21875 C 0.671875 -0.21875 0.59375 -0.21875 0.59375 -0.078125 C 0.59375 0 0.671875 0 0.75 0 L 2.765625 0 C 3.9375 0 5.125 -0.953125 5.125 -2.046875 C 5.125 -2.875 4.46875 -3.40625 3.609375 -3.40625 L 1.5625 -3.40625 C 1.46875 -3.40625 1.390625 -3.40625 1.390625 -3.265625 C 1.390625 -3.1875 1.453125 -3.1875 1.578125 -3.1875 C 1.625 -3.1875 1.796875 -3.1875 1.890625 -3.15625 C 1.890625 -3.09375 1.890625 -3.078125 1.875 -3.03125 Z M 2.375 -3.015625 C 2.421875 -3.171875 2.421875 -3.1875 2.625 -3.1875 L 3.421875 -3.1875 C 3.765625 -3.1875 4.09375 -3.09375 4.3125 -2.90625 C 4.484375 -2.734375 4.59375 -2.53125 4.59375 -2.1875 C 4.59375 -1.875 4.484375 -1.234375 4.109375 -0.8125 C 3.734375 -0.40625 3.1875 -0.21875 2.671875 -0.21875 L 1.84375 -0.21875 C 1.8125 -0.21875 1.734375 -0.21875 1.6875 -0.234375 C 1.6875 -0.28125 1.6875 -0.296875 1.703125 -0.328125 Z M 2.375 -3.015625"/>
    <path fill="none" stroke="#000000" stroke-miterlimit="10" stroke-width="0.398" transform="matrix(1 0 0 -1 194.836 10.514)" d="M -0.0000625 -0.001625 L 10.214781 -0.001625"/>
    <path transform="matrix(1 0 0 1 194.836 16.44)" d="M 4.984375 -3.9375 C 5.234375 -4.3125 5.46875 -4.484375 5.84375 -4.515625 C 5.921875 -4.515625 6 -4.515625 6 -4.65625 C 6 -4.6875 5.984375 -4.765625 5.90625 -4.765625 C 5.734375 -4.765625 5.515625 -4.734375 5.34375 -4.734375 C 5.125 -4.734375 4.828125 -4.765625 4.625 -4.765625 C 4.5625 -4.765625 4.484375 -4.734375 4.484375 -4.609375 C 4.484375 -4.515625 4.578125 -4.515625 4.609375 -4.515625 C 4.828125 -4.5 4.890625 -4.40625 4.890625 -4.3125 C 4.890625 -4.203125 4.84375 -4.140625 4.765625 -4.03125 L 2.484375 -0.65625 L 1.84375 -4.21875 C 1.828125 -4.28125 1.828125 -4.296875 1.828125 -4.328125 C 1.828125 -4.515625 2.21875 -4.515625 2.265625 -4.515625 C 2.390625 -4.515625 2.484375 -4.515625 2.484375 -4.65625 C 2.484375 -4.671875 2.46875 -4.765625 2.359375 -4.765625 C 2.15625 -4.765625 1.671875 -4.734375 1.46875 -4.734375 C 1.296875 -4.734375 0.859375 -4.765625 0.6875 -4.765625 C 0.625 -4.765625 0.546875 -4.734375 0.546875 -4.609375 C 0.546875 -4.515625 0.640625 -4.515625 0.71875 -4.515625 C 1.109375 -4.515625 1.125 -4.46875 1.15625 -4.28125 L 1.921875 -0.046875 C 1.9375 0.09375 1.953125 0.140625 2.078125 0.140625 C 2.21875 0.140625 2.25 0.09375 2.328125 -0.015625 Z M 4.984375 -3.9375"/>
    <path transform="matrix(1 0 0 1 199.541 17.442)" d="M 2.890625 -2.96875 C 2.9375 -3.125 2.9375 -3.140625 3.140625 -3.140625 L 3.671875 -3.140625 C 4.234375 -3.140625 4.3125 -2.984375 4.3125 -2.671875 C 4.3125 -2.640625 4.3125 -2.546875 4.265625 -2.3125 L 4.265625 -2.265625 C 4.265625 -2.21875 4.296875 -2.171875 4.375 -2.171875 C 4.46875 -2.171875 4.46875 -2.21875 4.484375 -2.3125 L 4.609375 -3.203125 C 4.625 -3.25 4.625 -3.265625 4.625 -3.28125 C 4.625 -3.359375 4.546875 -3.359375 4.453125 -3.359375 L 0.96875 -3.359375 C 0.828125 -3.359375 0.828125 -3.359375 0.78125 -3.265625 L 0.453125 -2.34375 C 0.453125 -2.328125 0.421875 -2.265625 0.421875 -2.265625 C 0.421875 -2.234375 0.453125 -2.171875 0.53125 -2.171875 C 0.609375 -2.171875 0.625 -2.1875 0.65625 -2.3125 C 0.890625 -2.90625 1.03125 -3.140625 1.703125 -3.140625 L 2.25 -3.140625 C 2.28125 -3.140625 2.359375 -3.140625 2.40625 -3.125 L 2.40625 -3.09375 L 1.734375 -0.4375 C 1.703125 -0.28125 1.6875 -0.21875 1.15625 -0.21875 L 1.046875 -0.21875 C 0.953125 -0.21875 0.9375 -0.21875 0.921875 -0.203125 C 0.890625 -0.171875 0.875 -0.125 0.875 -0.078125 C 0.875 -0.0625 0.890625 0 0.96875 0 C 1.125 0 1.28125 -0.015625 1.4375 -0.015625 C 1.578125 -0.015625 1.734375 -0.015625 1.890625 -0.015625 C 2.046875 -0.015625 2.21875 -0.015625 2.375 -0.015625 C 2.53125 -0.015625 2.6875 0 2.84375 0 C 2.875 0 2.96875 0 2.96875 -0.140625 C 2.96875 -0.21875 2.890625 -0.21875 2.8125 -0.21875 L 2.703125 -0.21875 C 2.5625 -0.21875 2.4375 -0.21875 2.296875 -0.25 C 2.265625 -0.25 2.234375 -0.265625 2.234375 -0.3125 C 2.234375 -0.34375 2.234375 -0.34375 2.25 -0.421875 Z M 2.890625 -2.96875"/>
    <path transform="matrix(1 0 0 1 206.245 1.946)" d="M 4.140625 8.5625 C 4.140625 5.703125 3.484375 2.65625 1.515625 0.421875 C 1.375 0.265625 1 -0.125 0.765625 -0.34375 C 0.703125 -0.40625 0.671875 -0.40625 0.546875 -0.40625 C 0.453125 -0.40625 0.359375 -0.40625 0.359375 -0.296875 C 0.359375 -0.265625 0.40625 -0.21875 0.421875 -0.203125 C 0.75 0.15625 1.296875 0.703125 1.90625 1.796875 C 2.984375 3.703125 3.390625 6.171875 3.390625 8.5625 C 3.390625 12.890625 2.1875 15.53125 0.40625 17.359375 C 0.375 17.375 0.359375 17.40625 0.359375 17.4375 C 0.359375 17.53125 0.453125 17.53125 0.546875 17.53125 C 0.671875 17.53125 0.703125 17.53125 0.78125 17.453125 C 1.734375 16.640625 2.796875 15.25 3.484375 13.15625 C 3.921875 11.78125 4.140625 10.171875 4.140625 8.5625 Z M 4.140625 8.5625"/>
    <path transform="matrix(1 0 0 1 214.409 13.004)" d="M 6.5625 -2.296875 C 6.734375 -2.296875 6.921875 -2.296875 6.921875 -2.5 C 6.921875 -2.6875 6.734375 -2.6875 6.5625 -2.6875 L 1.171875 -2.6875 C 1 -2.6875 0.828125 -2.6875 0.828125 -2.5 C 0.828125 -2.296875 1 -2.296875 1.171875 -2.296875 Z M 6.5625 -2.296875"/>
    <path transform="matrix(1 0 0 1 224.372 13.004)" d="M 2.9375 -6.375 C 2.9375 -6.625 2.9375 -6.640625 2.703125 -6.640625 C 2.078125 -6 1.203125 -6 0.890625 -6 L 0.890625 -5.6875 C 1.09375 -5.6875 1.671875 -5.6875 2.1875 -5.953125 L 2.1875 -0.78125 C 2.1875 -0.421875 2.15625 -0.3125 1.265625 -0.3125 L 0.953125 -0.3125 L 0.953125 0 C 1.296875 -0.03125 2.15625 -0.03125 2.5625 -0.03125 C 2.953125 -0.03125 3.828125 -0.03125 4.171875 0 L 4.171875 -0.3125 L 3.859375 -0.3125 C 2.953125 -0.3125 2.9375 -0.421875 2.9375 -0.78125 Z M 2.9375 -6.375"/>
    <path transform="matrix(1 0 0 1 229.353 1.946)" d="M 1.96875 17.0625 L 0.171875 17.0625 L 0.171875 17.53125 L 2.4375 17.53125 L 2.4375 -0.40625 L 0.171875 -0.40625 L 0.171875 0.0625 L 1.96875 0.0625 Z M 1.96875 17.0625"/>
    <path transform="matrix(1 0 0 1 153 32.993)" d="M 3.484375 -3.875 L 2.203125 -4.171875 C 1.578125 -4.328125 1.203125 -4.859375 1.203125 -5.4375 C 1.203125 -6.140625 1.734375 -6.75 2.515625 -6.75 C 4.171875 -6.75 4.390625 -5.109375 4.453125 -4.671875 C 4.46875 -4.609375 4.46875 -4.546875 4.578125 -4.546875 C 4.703125 -4.546875 4.703125 -4.59375 4.703125 -4.78125 L 4.703125 -6.78125 C 4.703125 -6.953125 4.703125 -7.03125 4.59375 -7.03125 C 4.53125 -7.03125 4.515625 -7.015625 4.453125 -6.890625 L 4.09375 -6.328125 C 3.796875 -6.625 3.390625 -7.03125 2.5 -7.03125 C 1.390625 -7.03125 0.5625 -6.15625 0.5625 -5.09375 C 0.5625 -4.265625 1.09375 -3.53125 1.859375 -3.265625 C 1.96875 -3.234375 2.484375 -3.109375 3.1875 -2.9375 C 3.453125 -2.875 3.75 -2.796875 4.03125 -2.4375 C 4.234375 -2.171875 4.34375 -1.84375 4.34375 -1.515625 C 4.34375 -0.8125 3.84375 -0.09375 3 -0.09375 C 2.71875 -0.09375 1.953125 -0.140625 1.421875 -0.625 C 0.84375 -1.171875 0.8125 -1.796875 0.8125 -2.15625 C 0.796875 -2.265625 0.71875 -2.265625 0.6875 -2.265625 C 0.5625 -2.265625 0.5625 -2.1875 0.5625 -2.015625 L 0.5625 -0.015625 C 0.5625 0.15625 0.5625 0.21875 0.671875 0.21875 C 0.734375 0.21875 0.75 0.203125 0.8125 0.09375 C 0.8125 0.078125 0.84375 0.046875 1.171875 -0.484375 C 1.484375 -0.140625 2.125 0.21875 3.015625 0.21875 C 4.171875 0.21875 4.96875 -0.75 4.96875 -1.859375 C 4.96875 -2.84375 4.3125 -3.671875 3.484375 -3.875 Z M 3.484375 -3.875"/>
    <path transform="matrix(1 0 0 1 158.529243 32.993)" d="M 1.09375 -0.75 C 1.09375 -0.3125 0.984375 -0.3125 0.3125 -0.3125 L 0.3125 0 C 0.671875 -0.015625 1.171875 -0.03125 1.453125 -0.03125 C 1.703125 -0.03125 2.21875 -0.015625 2.5625 0 L 2.5625 -0.3125 C 1.890625 -0.3125 1.78125 -0.3125 1.78125 -0.75 L 1.78125 -2.59375 C 1.78125 -3.625 2.5 -4.1875 3.125 -4.1875 C 3.765625 -4.1875 3.875 -3.65625 3.875 -3.078125 L 3.875 -0.75 C 3.875 -0.3125 3.765625 -0.3125 3.09375 -0.3125 L 3.09375 0 C 3.4375 -0.015625 3.953125 -0.03125 4.21875 -0.03125 C 4.46875 -0.03125 5 -0.015625 5.328125 0 L 5.328125 -0.3125 C 4.8125 -0.3125 4.5625 -0.3125 4.5625 -0.609375 L 4.5625 -2.515625 C 4.5625 -3.375 4.5625 -3.671875 4.25 -4.03125 C 4.109375 -4.203125 3.78125 -4.40625 3.203125 -4.40625 C 2.359375 -4.40625 1.921875 -3.8125 1.75 -3.421875 L 1.75 -6.921875 L 0.3125 -6.8125 L 0.3125 -6.5 C 1.015625 -6.5 1.09375 -6.4375 1.09375 -5.9375 Z M 1.09375 -0.75"/>
    <path transform="matrix(1 0 0 1 164.058486 32.993)" d="M 4.6875 -2.140625 C 4.6875 -3.40625 3.703125 -4.46875 2.5 -4.46875 C 1.25 -4.46875 0.28125 -3.375 0.28125 -2.140625 C 0.28125 -0.84375 1.3125 0.109375 2.484375 0.109375 C 3.6875 0.109375 4.6875 -0.875 4.6875 -2.140625 Z M 2.5 -0.140625 C 2.0625 -0.140625 1.625 -0.34375 1.359375 -0.8125 C 1.109375 -1.25 1.109375 -1.859375 1.109375 -2.21875 C 1.109375 -2.609375 1.109375 -3.140625 1.34375 -3.578125 C 1.609375 -4.03125 2.078125 -4.25 2.484375 -4.25 C 2.921875 -4.25 3.34375 -4.03125 3.609375 -3.59375 C 3.875 -3.171875 3.875 -2.59375 3.875 -2.21875 C 3.875 -1.859375 3.875 -1.3125 3.65625 -0.875 C 3.421875 -0.421875 2.984375 -0.140625 2.5 -0.140625 Z M 2.5 -0.140625"/>
    <path transform="matrix(1 0 0 1 169.318739 32.993)" d="M 1.171875 -2.171875 C 1.171875 -3.796875 1.984375 -4.21875 2.515625 -4.21875 C 2.609375 -4.21875 3.234375 -4.203125 3.578125 -3.84375 C 3.171875 -3.8125 3.109375 -3.515625 3.109375 -3.390625 C 3.109375 -3.125 3.296875 -2.9375 3.5625 -2.9375 C 3.828125 -2.9375 4.03125 -3.09375 4.03125 -3.40625 C 4.03125 -4.078125 3.265625 -4.46875 2.5 -4.46875 C 1.25 -4.46875 0.34375 -3.390625 0.34375 -2.15625 C 0.34375 -0.875 1.328125 0.109375 2.484375 0.109375 C 3.8125 0.109375 4.140625 -1.09375 4.140625 -1.1875 C 4.140625 -1.28125 4.03125 -1.28125 4 -1.28125 C 3.921875 -1.28125 3.890625 -1.25 3.875 -1.1875 C 3.59375 -0.265625 2.9375 -0.140625 2.578125 -0.140625 C 2.046875 -0.140625 1.171875 -0.5625 1.171875 -2.171875 Z M 1.171875 -2.171875"/>
    <path transform="matrix(1 0 0 1 173.46318 32.993)" d="M 1.0625 -0.75 C 1.0625 -0.3125 0.953125 -0.3125 0.28125 -0.3125 L 0.28125 0 C 0.609375 -0.015625 1.078125 -0.03125 1.359375 -0.03125 C 1.671875 -0.03125 2.0625 -0.015625 2.46875 0 L 2.46875 -0.3125 C 1.796875 -0.3125 1.6875 -0.3125 1.6875 -0.75 L 1.6875 -1.78125 L 2.328125 -2.328125 C 3.09375 -1.28125 3.515625 -0.71875 3.515625 -0.53125 C 3.515625 -0.34375 3.34375 -0.3125 3.15625 -0.3125 L 3.15625 0 C 3.421875 -0.015625 4.015625 -0.03125 4.234375 -0.03125 C 4.515625 -0.03125 4.8125 -0.015625 5.09375 0 L 5.09375 -0.3125 C 4.71875 -0.3125 4.5 -0.3125 4.125 -0.84375 L 2.859375 -2.625 C 2.84375 -2.640625 2.796875 -2.703125 2.796875 -2.734375 C 2.796875 -2.765625 3.515625 -3.375 3.609375 -3.453125 C 4.234375 -3.953125 4.65625 -3.984375 4.859375 -3.984375 L 4.859375 -4.296875 C 4.578125 -4.265625 4.453125 -4.265625 4.171875 -4.265625 C 3.8125 -4.265625 3.1875 -4.28125 3.046875 -4.296875 L 3.046875 -3.984375 C 3.234375 -3.984375 3.34375 -3.875 3.34375 -3.734375 C 3.34375 -3.53125 3.203125 -3.421875 3.125 -3.34375 L 1.71875 -2.140625 L 1.71875 -6.921875 L 0.28125 -6.8125 L 0.28125 -6.5 C 0.984375 -6.5 1.0625 -6.4375 1.0625 -5.9375 Z M 1.0625 -0.75"/>
    <path transform="matrix(1 0 0 1 178.713471 32.993)" d="M 1.765625 -6.921875 L 0.328125 -6.8125 L 0.328125 -6.5 C 1.03125 -6.5 1.109375 -6.4375 1.109375 -5.9375 L 1.109375 -0.75 C 1.109375 -0.3125 1 -0.3125 0.328125 -0.3125 L 0.328125 0 C 0.65625 -0.015625 1.1875 -0.03125 1.4375 -0.03125 C 1.6875 -0.03125 2.171875 -0.015625 2.546875 0 L 2.546875 -0.3125 C 1.875 -0.3125 1.765625 -0.3125 1.765625 -0.75 Z M 1.765625 -6.921875"/>
    <path transform="matrix(1 0 0 1 181.473111 32.993)" d="M 1.109375 -2.515625 C 1.171875 -4 2.015625 -4.25 2.359375 -4.25 C 3.375 -4.25 3.484375 -2.90625 3.484375 -2.515625 Z M 1.109375 -2.296875 L 3.890625 -2.296875 C 4.109375 -2.296875 4.140625 -2.296875 4.140625 -2.515625 C 4.140625 -3.5 3.59375 -4.46875 2.359375 -4.46875 C 1.203125 -4.46875 0.28125 -3.4375 0.28125 -2.1875 C 0.28125 -0.859375 1.328125 0.109375 2.46875 0.109375 C 3.6875 0.109375 4.140625 -1 4.140625 -1.1875 C 4.140625 -1.28125 4.0625 -1.3125 4 -1.3125 C 3.921875 -1.3125 3.890625 -1.25 3.875 -1.171875 C 3.53125 -0.140625 2.625 -0.140625 2.53125 -0.140625 C 2.03125 -0.140625 1.640625 -0.4375 1.40625 -0.8125 C 1.109375 -1.28125 1.109375 -1.9375 1.109375 -2.296875 Z M 1.109375 -2.296875"/>
    <path transform="matrix(1 0 0 1 185.896505 32.993)" d="M 4.140625 -3.34375 C 4.390625 -3.984375 4.90625 -3.984375 5.0625 -3.984375 L 5.0625 -4.296875 C 4.828125 -4.28125 4.546875 -4.265625 4.3125 -4.265625 C 4.140625 -4.265625 3.671875 -4.28125 3.453125 -4.296875 L 3.453125 -3.984375 C 3.765625 -3.984375 3.921875 -3.8125 3.921875 -3.5625 C 3.921875 -3.453125 3.90625 -3.4375 3.859375 -3.3125 L 2.84375 -0.875 L 1.75 -3.546875 C 1.703125 -3.65625 1.6875 -3.6875 1.6875 -3.734375 C 1.6875 -3.984375 2.046875 -3.984375 2.25 -3.984375 L 2.25 -4.296875 C 1.984375 -4.28125 1.328125 -4.265625 1.15625 -4.265625 C 0.890625 -4.265625 0.484375 -4.28125 0.1875 -4.296875 L 0.1875 -3.984375 C 0.671875 -3.984375 0.859375 -3.984375 1 -3.640625 L 2.5 0 C 2.4375 0.125 2.296875 0.453125 2.25 0.59375 C 2.03125 1.140625 1.75 1.828125 1.109375 1.828125 C 1.0625 1.828125 0.828125 1.828125 0.640625 1.640625 C 0.953125 1.609375 1.03125 1.390625 1.03125 1.21875 C 1.03125 0.96875 0.84375 0.8125 0.609375 0.8125 C 0.40625 0.8125 0.1875 0.9375 0.1875 1.234375 C 0.1875 1.6875 0.609375 2.046875 1.109375 2.046875 C 1.734375 2.046875 2.140625 1.46875 2.375 0.90625 Z M 4.140625 -3.34375"/>
    <path transform="matrix(1 0 0 1 194.464341 32.993)" d="M 1.109375 -2.515625 C 1.171875 -4 2.015625 -4.25 2.359375 -4.25 C 3.375 -4.25 3.484375 -2.90625 3.484375 -2.515625 Z M 1.109375 -2.296875 L 3.890625 -2.296875 C 4.109375 -2.296875 4.140625 -2.296875 4.140625 -2.515625 C 4.140625 -3.5 3.59375 -4.46875 2.359375 -4.46875 C 1.203125 -4.46875 0.28125 -3.4375 0.28125 -2.1875 C 0.28125 -0.859375 1.328125 0.109375 2.46875 0.109375 C 3.6875 0.109375 4.140625 -1 4.140625 -1.1875 C 4.140625 -1.28125 4.0625 -1.3125 4 -1.3125 C 3.921875 -1.3125 3.890625 -1.25 3.875 -1.171875 C 3.53125 -0.140625 2.625 -0.140625 2.53125 -0.140625 C 2.03125 -0.140625 1.640625 -0.4375 1.40625 -0.8125 C 1.109375 -1.28125 1.109375 -1.9375 1.109375 -2.296875 Z M 1.109375 -2.296875"/>
    <path transform="matrix(1 0 0 1 198.887736 32.993)" d="M 3.78125 -0.609375 L 3.78125 1.171875 C 3.78125 1.625 3.671875 1.625 3.015625 1.625 L 3.015625 1.9375 C 3.34375 1.921875 3.875 1.90625 4.125 1.90625 C 4.390625 1.90625 4.90625 1.921875 5.25 1.9375 L 5.25 1.625 C 4.578125 1.625 4.46875 1.625 4.46875 1.171875 L 4.46875 -4.40625 L 4.25 -4.40625 L 3.875 -3.5 C 3.75 -3.78125 3.34375 -4.40625 2.546875 -4.40625 C 1.390625 -4.40625 0.34375 -3.4375 0.34375 -2.140625 C 0.34375 -0.890625 1.3125 0.109375 2.46875 0.109375 C 3.15625 0.109375 3.5625 -0.3125 3.78125 -0.609375 Z M 3.8125 -2.765625 L 3.8125 -1.359375 C 3.8125 -1.03125 3.640625 -0.75 3.421875 -0.515625 C 3.296875 -0.375 2.96875 -0.109375 2.5 -0.109375 C 1.78125 -0.109375 1.171875 -1 1.171875 -2.140625 C 1.171875 -3.328125 1.859375 -4.15625 2.609375 -4.15625 C 3.40625 -4.15625 3.8125 -3.296875 3.8125 -2.765625 Z M 3.8125 -2.765625"/>
    <path transform="matrix(1 0 0 1 204.138026 32.993)" d="M 1.09375 -3.421875 L 1.09375 -0.75 C 1.09375 -0.3125 0.984375 -0.3125 0.3125 -0.3125 L 0.3125 0 C 0.671875 -0.015625 1.171875 -0.03125 1.453125 -0.03125 C 1.703125 -0.03125 2.21875 -0.015625 2.5625 0 L 2.5625 -0.3125 C 1.890625 -0.3125 1.78125 -0.3125 1.78125 -0.75 L 1.78125 -2.59375 C 1.78125 -3.625 2.5 -4.1875 3.125 -4.1875 C 3.765625 -4.1875 3.875 -3.65625 3.875 -3.078125 L 3.875 -0.75 C 3.875 -0.3125 3.765625 -0.3125 3.09375 -0.3125 L 3.09375 0 C 3.4375 -0.015625 3.953125 -0.03125 4.21875 -0.03125 C 4.46875 -0.03125 5 -0.015625 5.328125 0 L 5.328125 -0.3125 C 4.8125 -0.3125 4.5625 -0.3125 4.5625 -0.609375 L 4.5625 -2.515625 C 4.5625 -3.375 4.5625 -3.671875 4.25 -4.03125 C 4.109375 -4.203125 3.78125 -4.40625 3.203125 -4.40625 C 2.46875 -4.40625 2 -3.984375 1.71875 -3.359375 L 1.71875 -4.40625 L 0.3125 -4.296875 L 0.3125 -3.984375 C 1.015625 -3.984375 1.09375 -3.921875 1.09375 -3.421875 Z M 1.09375 -3.421875"/>
    <path transform="matrix(1 0 0 1 141 44.994)" d="M 4.3125 -3.3125 C 4.3125 -3.9375 3.984375 -3.96875 3.90625 -3.96875 C 3.671875 -3.96875 3.4375 -3.734375 3.4375 -3.53125 C 3.4375 -3.390625 3.53125 -3.3125 3.59375 -3.265625 C 3.828125 -3.046875 3.90625 -2.75 3.90625 -2.515625 C 3.90625 -2.125 3.34375 -0.125 2.3125 -0.125 C 1.625 -0.125 1.625 -0.75 1.625 -0.921875 C 1.625 -1.296875 1.765625 -1.765625 2.078125 -2.578125 C 2.21875 -2.953125 2.25 -3.046875 2.25 -3.203125 C 2.25 -3.65625 1.921875 -3.96875 1.484375 -3.96875 C 0.625 -3.96875 0.265625 -2.6875 0.265625 -2.578125 C 0.265625 -2.5 0.328125 -2.46875 0.390625 -2.46875 C 0.484375 -2.46875 0.5 -2.53125 0.53125 -2.640625 C 0.71875 -3.296875 1.078125 -3.734375 1.453125 -3.734375 C 1.625 -3.734375 1.671875 -3.625 1.671875 -3.4375 C 1.671875 -3.296875 1.625 -3.125 1.546875 -2.921875 C 1.234375 -2.046875 1.015625 -1.484375 1.015625 -1.03125 C 1.015625 -0.1875 1.65625 0.09375 2.265625 0.09375 C 3.78125 0.09375 4.3125 -2.734375 4.3125 -3.3125 Z M 4.3125 -3.3125"/>
    <path transform="matrix(1 0 0 1 145.476 45.99)" d="M 1.25 -0.5 C 1.203125 -0.28125 1.1875 -0.234375 0.734375 -0.234375 C 0.609375 -0.234375 0.59375 -0.234375 0.5625 -0.21875 C 0.53125 -0.203125 0.515625 -0.125 0.515625 -0.078125 C 0.53125 0 0.59375 0 0.703125 0 L 2.953125 0 C 4.3125 0 5.65625 -1.171875 5.65625 -2.5 C 5.65625 -3.453125 4.953125 -4.09375 3.96875 -4.09375 L 1.6875 -4.09375 C 1.5625 -4.09375 1.484375 -4.09375 1.484375 -3.9375 C 1.484375 -3.84375 1.5625 -3.84375 1.671875 -3.84375 C 1.78125 -3.84375 1.9375 -3.84375 2.0625 -3.8125 C 2.0625 -3.75 2.0625 -3.703125 2.03125 -3.609375 Z M 2.609375 -3.640625 C 2.65625 -3.84375 2.65625 -3.84375 2.90625 -3.84375 L 3.75 -3.84375 C 4.453125 -3.84375 5.0625 -3.515625 5.0625 -2.6875 C 5.0625 -2.484375 4.984375 -1.53125 4.40625 -0.890625 C 4.09375 -0.546875 3.546875 -0.234375 2.84375 -0.234375 L 1.96875 -0.234375 C 1.84375 -0.234375 1.84375 -0.234375 1.765625 -0.25 Z M 2.609375 -3.640625"/>
    <path fill="none" stroke="#000000" stroke-miterlimit="10" stroke-width="0.8" stroke-linejoin="round" transform="matrix(1 0 0 -1 -111 661)" d="M 244 612 L 244 604"/>
    <path fill="none" stroke="#000000" stroke-miterlimit="10" stroke-width="0.8" stroke-linejoin="round" transform="matrix(1 0 0 -1 -111 661)" d="M 244 632 L 244 624"/>
    <path fill="#ffffff" fill-rule="evenodd" d="M 134.5 29 C 134.5 27 131.5 27 131.5 29 C 131.5 31 134.5 31 134.5 29 Z M 134.5 29"/>
    <path fill-rule="evenodd" d="M 134.800781 29 C 134.800781 26.601562 131.199219 26.601562 131.199219 29 C 131.199219 31.398438 134.800781 31.398438 134.800781 29 Z M 134.199219 29 C 134.199219 27.398438 131.800781 27.398438 131.800781 29 C 131.800781 30.601562 134.199219 30.601562 134.199219 29 Z M 134.199219 29"/>
    <path fill="#ffffff" fill-rule="evenodd" d="M 134.5 57 C 134.5 55 131.5 55 131.5 57 C 131.5 59 134.5 59 134.5 57 Z M 134.5 57"/>
    <path fill-rule="evenodd" d="M 134.800781 57 C 134.800781 54.601562 131.199219 54.601562 131.199219 57 C 131.199219 59.398438 134.800781 59.398438 134.800781 57 Z M 134.199219 57 C 134.199219 55.398438 131.800781 55.398438 131.800781 57 C 131.800781 58.601562 134.199219 58.601562 134.199219 57 Z M 134.199219 57"/>
    <path transform="matrix(1 0 0 1 122.09 29)" d="M 3.671875 -6.234375 C 3.625 -6.34375 3.59375 -6.421875 3.453125 -6.421875 C 3.3125 -6.421875 3.296875 -6.375 3.234375 -6.21875 L 1.3125 -0.890625 C 1.203125 -0.59375 1 -0.28125 0.3125 -0.28125 L 0.3125 0 C 0.640625 -0.03125 0.890625 -0.03125 1.21875 -0.03125 C 1.53125 -0.03125 1.734375 -0.015625 2.234375 0 L 2.234375 -0.28125 C 1.71875 -0.28125 1.5625 -0.5625 1.5625 -0.734375 C 1.5625 -0.8125 1.59375 -0.859375 1.609375 -0.90625 L 2.03125 -2.0625 L 4.34375 -2.0625 L 4.828125 -0.703125 C 4.875 -0.625 4.875 -0.59375 4.875 -0.546875 C 4.875 -0.28125 4.375 -0.28125 4.140625 -0.28125 L 4.140625 0 C 4.546875 -0.03125 5.015625 -0.03125 5.421875 -0.03125 C 5.828125 -0.03125 5.859375 -0.03125 6.59375 0 L 6.59375 -0.28125 L 6.453125 -0.28125 C 5.890625 -0.28125 5.796875 -0.359375 5.703125 -0.609375 Z M 4.25 -2.34375 L 2.125 -2.34375 L 3.1875 -5.28125 Z M 4.25 -2.34375"/>
    <path transform="matrix(1 0 0 1 121.834 63.127)" d="M 5.375 -5.296875 C 5.9375 -5.828125 6.5 -5.84375 6.640625 -5.84375 L 6.640625 -6.125 C 6.390625 -6.09375 5.9375 -6.09375 5.84375 -6.09375 C 5.46875 -6.09375 5.140625 -6.109375 4.734375 -6.125 L 4.734375 -5.84375 C 4.984375 -5.84375 5.125 -5.71875 5.125 -5.546875 C 5.125 -5.484375 5.09375 -5.40625 5.046875 -5.34375 L 2.0625 -2.578125 L 2.0625 -5.421875 C 2.0625 -5.75 2.078125 -5.84375 2.765625 -5.84375 L 2.984375 -5.84375 L 2.984375 -6.125 C 2.578125 -6.09375 2.078125 -6.09375 1.65625 -6.09375 C 1.25 -6.09375 0.75 -6.09375 0.34375 -6.125 L 0.34375 -5.84375 L 0.546875 -5.84375 C 1.234375 -5.84375 1.25 -5.75 1.25 -5.421875 L 1.25 -0.703125 C 1.25 -0.375 1.234375 -0.28125 0.546875 -0.28125 L 0.34375 -0.28125 L 0.34375 0 C 0.75 -0.03125 1.25 -0.03125 1.65625 -0.03125 C 2.078125 -0.03125 2.578125 -0.03125 2.984375 0 L 2.984375 -0.28125 L 2.765625 -0.28125 C 2.078125 -0.28125 2.0625 -0.375 2.0625 -0.703125 L 2.0625 -2.25 L 3.15625 -3.25 L 4.828125 -0.875 C 4.90625 -0.765625 4.984375 -0.640625 4.984375 -0.53125 C 4.984375 -0.28125 4.640625 -0.28125 4.46875 -0.28125 L 4.46875 0 C 4.875 -0.03125 5.3125 -0.03125 5.71875 -0.03125 C 5.953125 -0.03125 6.3125 -0.03125 6.765625 0 L 6.765625 -0.28125 C 6.203125 -0.28125 6.078125 -0.359375 5.796875 -0.765625 L 3.6875 -3.75 Z M 5.375 -5.296875"/>
    <path fill="none" stroke="#000000" stroke-miterlimit="10" stroke-width="0.8" stroke-linejoin="round" transform="matrix(1 0 0 -1 -111 661)" d="M 236 624 L 252 624 L 244 612 L 236 624"/>
    <path fill="none" stroke="#000000" stroke-miterlimit="10" stroke-width="0.8" stroke-linejoin="round" transform="matrix(1 0 0 -1 -111 661)" d="M 236 612 L 252 612"/>
    <path transform="matrix(1 0 0 1 141 33)" d="M 4.078125 -2.296875 L 6.859375 -2.296875 C 7 -2.296875 7.1875 -2.296875 7.1875 -2.5 C 7.1875 -2.6875 7 -2.6875 6.859375 -2.6875 L 4.078125 -2.6875 L 4.078125 -5.484375 C 4.078125 -5.625 4.078125 -5.8125 3.875 -5.8125 C 3.671875 -5.8125 3.671875 -5.625 3.671875 -5.484375 L 3.671875 -2.6875 L 0.890625 -2.6875 C 0.75 -2.6875 0.5625 -2.6875 0.5625 -2.5 C 0.5625 -2.296875 0.75 -2.296875 0.890625 -2.296875 L 3.671875 -2.296875 L 3.671875 0.5 C 3.671875 0.640625 3.671875 0.828125 3.875 0.828125 C 4.078125 0.828125 4.078125 0.640625 4.078125 0.5 Z M 4.078125 -2.296875"/>
    <path transform="matrix(1 0 0 1 141 61)" d="M 6.5625 -2.296875 C 6.734375 -2.296875 6.921875 -2.296875 6.921875 -2.5 C 6.921875 -2.6875 6.734375 -2.6875 6.5625 -2.6875 L 1.171875 -2.6875 C 1 -2.6875 0.828125 -2.6875 0.828125 -2.5 C 0.828125 -2.296875 1 -2.296875 1.171875 -2.296875 Z M 6.5625 -2.296875"/>
    <path fill="#0000ff" transform="matrix(1 0 0 1 129 108.998)" d="M 4.3125 -3.3125 C 4.3125 -3.9375 3.984375 -3.96875 3.90625 -3.96875 C 3.671875 -3.96875 3.4375 -3.734375 3.4375 -3.53125 C 3.4375 -3.390625 3.53125 -3.3125 3.59375 -3.265625 C 3.828125 -3.046875 3.90625 -2.75 3.90625 -2.515625 C 3.90625 -2.125 3.34375 -0.125 2.3125 -0.125 C 1.625 -0.125 1.625 -0.75 1.625 -0.921875 C 1.625 -1.296875 1.765625 -1.765625 2.078125 -2.578125 C 2.21875 -2.953125 2.25 -3.046875 2.25 -3.203125 C 2.25 -3.65625 1.921875 -3.96875 1.484375 -3.96875 C 0.625 -3.96875 0.265625 -2.6875 0.265625 -2.578125 C 0.265625 -2.5 0.328125 -2.46875 0.390625 -2.46875 C 0.484375 -2.46875 0.5 -2.53125 0.53125 -2.640625 C 0.71875 -3.296875 1.078125 -3.734375 1.453125 -3.734375 C 1.625 -3.734375 1.671875 -3.625 1.671875 -3.4375 C 1.671875 -3.296875 1.625 -3.125 1.546875 -2.921875 C 1.234375 -2.046875 1.015625 -1.484375 1.015625 -1.03125 C 1.015625 -0.1875 1.65625 0.09375 2.265625 0.09375 C 3.78125 0.09375 4.3125 -2.734375 4.3125 -3.3125 Z M 4.3125 -3.3125"/>
    <path fill="#0000ff" transform="matrix(1 0 0 1 133.476 109.995)" d="M 1.25 -0.5 C 1.203125 -0.28125 1.1875 -0.234375 0.734375 -0.234375 C 0.609375 -0.234375 0.59375 -0.234375 0.5625 -0.21875 C 0.53125 -0.203125 0.515625 -0.125 0.515625 -0.078125 C 0.53125 0 0.59375 0 0.703125 0 L 2.953125 0 C 4.3125 0 5.65625 -1.171875 5.65625 -2.5 C 5.65625 -3.453125 4.953125 -4.09375 3.96875 -4.09375 L 1.6875 -4.09375 C 1.5625 -4.09375 1.484375 -4.09375 1.484375 -3.9375 C 1.484375 -3.84375 1.5625 -3.84375 1.671875 -3.84375 C 1.78125 -3.84375 1.9375 -3.84375 2.0625 -3.8125 C 2.0625 -3.75 2.0625 -3.703125 2.03125 -3.609375 Z M 2.609375 -3.640625 C 2.65625 -3.84375 2.65625 -3.84375 2.90625 -3.84375 L 3.75 -3.84375 C 4.453125 -3.84375 5.0625 -3.515625 5.0625 -2.6875 C 5.0625 -2.484375 4.984375 -1.53125 4.40625 -0.890625 C 4.09375 -0.546875 3.546875 -0.234375 2.84375 -0.234375 L 1.96875 -0.234375 C 1.84375 -0.234375 1.84375 -0.234375 1.765625 -0.25 Z M 2.609375 -3.640625"/>
    <path fill="#0000ff" transform="matrix(1 0 0 1 140.135 108.998)" d="M 3.0625 2.140625 C 3.0625 2.09375 3.03125 2.0625 2.984375 2 C 1.828125 0.9375 1.46875 -0.671875 1.46875 -2.25 C 1.46875 -3.625 1.734375 -5.3125 3 -6.515625 C 3.046875 -6.5625 3.0625 -6.578125 3.0625 -6.625 C 3.0625 -6.6875 3.015625 -6.734375 2.953125 -6.734375 C 2.84375 -6.734375 2.03125 -6.078125 1.546875 -5.109375 C 1.125 -4.25 0.90625 -3.3125 0.90625 -2.25 C 0.90625 -1.609375 0.984375 -0.578125 1.484375 0.46875 C 2.015625 1.578125 2.84375 2.234375 2.953125 2.234375 C 3.015625 2.234375 3.0625 2.203125 3.0625 2.140625 Z M 3.0625 2.140625"/>
    <path fill="#0000ff" transform="matrix(1 0 0 1 143.712594 108.998)" d="M 4.34375 -1.90625 C 4.34375 -3.078125 3.40625 -4.015625 2.3125 -4.015625 C 1.171875 -4.015625 0.265625 -3.0625 0.265625 -1.90625 C 0.265625 -0.796875 1.1875 0.09375 2.296875 0.09375 C 3.4375 0.09375 4.34375 -0.8125 4.34375 -1.90625 Z M 2.3125 -0.15625 C 1.859375 -0.15625 1.484375 -0.375 1.28125 -0.71875 C 1.046875 -1.109375 1.03125 -1.578125 1.03125 -1.984375 C 1.03125 -2.328125 1.03125 -2.828125 1.25 -3.203125 C 1.53125 -3.65625 1.96875 -3.796875 2.296875 -3.796875 C 2.8125 -3.796875 3.171875 -3.5 3.359375 -3.203125 C 3.5625 -2.828125 3.5625 -2.375 3.5625 -1.984375 C 3.5625 -1.65625 3.5625 -1.140625 3.34375 -0.75 C 3.09375 -0.328125 2.6875 -0.15625 2.3125 -0.15625 Z M 2.3125 -0.15625"/>
    <path fill="#0000ff" transform="matrix(1 0 0 1 148.312357 108.998)" d="M 1.671875 -2.328125 C 1.671875 -3.28125 2.34375 -3.734375 2.90625 -3.734375 C 3.4375 -3.734375 3.546875 -3.296875 3.546875 -2.765625 L 3.546875 -0.6875 C 3.546875 -0.28125 3.453125 -0.28125 2.859375 -0.28125 L 2.859375 0 C 3.28125 -0.015625 3.453125 -0.03125 3.890625 -0.03125 C 4.3125 -0.03125 4.4375 -0.015625 4.90625 0 L 4.90625 -0.28125 C 4.453125 -0.28125 4.21875 -0.28125 4.21875 -0.5625 L 4.21875 -2.28125 C 4.21875 -3.015625 4.21875 -3.28125 3.96875 -3.59375 C 3.765625 -3.84375 3.421875 -3.96875 2.96875 -3.96875 C 2.140625 -3.96875 1.75 -3.34375 1.625 -3.09375 L 1.609375 -3.09375 L 1.609375 -3.96875 L 0.3125 -3.859375 L 0.3125 -3.59375 C 0.921875 -3.59375 1 -3.53125 1 -3.078125 L 1 -0.6875 C 1 -0.28125 0.90625 -0.28125 0.3125 -0.28125 L 0.3125 0 C 0.734375 -0.015625 0.90625 -0.03125 1.34375 -0.03125 C 1.765625 -0.03125 1.890625 -0.015625 2.359375 0 L 2.359375 -0.28125 C 1.765625 -0.28125 1.671875 -0.28125 1.671875 -0.6875 Z M 1.671875 -2.328125"/>
    <path fill="#0000ff" transform="matrix(1 0 0 1 153.432171 108.998)" d="M 2.671875 -2.25 C 2.671875 -2.984375 2.5625 -3.96875 2.09375 -4.96875 C 1.5625 -6.078125 0.734375 -6.734375 0.625 -6.734375 C 0.53125 -6.734375 0.515625 -6.65625 0.515625 -6.625 C 0.515625 -6.578125 0.53125 -6.5625 0.59375 -6.5 C 1.125 -6.03125 2.109375 -4.8125 2.109375 -2.25 C 2.109375 -0.96875 1.875 0.8125 0.578125 2.03125 C 0.5625 2.046875 0.515625 2.09375 0.515625 2.140625 C 0.515625 2.15625 0.53125 2.234375 0.625 2.234375 C 0.734375 2.234375 1.546875 1.59375 2.03125 0.609375 C 2.453125 -0.25 2.671875 -1.171875 2.671875 -2.25 Z M 2.671875 -2.25"/>
    <path fill="none" stroke="#0000ff" stroke-miterlimit="10" stroke-width="0.8" stroke-linejoin="round" transform="matrix(1 0 0 -1 -111 661)" d="M 236 552 C 236 556.417969 232.417969 560 228 560 C 223.582031 560 220 556.417969 220 552 C 220 547.582031 223.582031 544 228 544 C 232.417969 544 236 547.582031 236 552 Z M 236 552"/>
    <path fill="#0000ff" transform="matrix(1 0 0 1 113.1255 107.491)" d="M 4.078125 -2.296875 L 6.859375 -2.296875 C 7 -2.296875 7.1875 -2.296875 7.1875 -2.5 C 7.1875 -2.6875 7 -2.6875 6.859375 -2.6875 L 4.078125 -2.6875 L 4.078125 -5.484375 C 4.078125 -5.625 4.078125 -5.8125 3.875 -5.8125 C 3.671875 -5.8125 3.671875 -5.625 3.671875 -5.484375 L 3.671875 -2.6875 L 0.890625 -2.6875 C 0.75 -2.6875 0.5625 -2.6875 0.5625 -2.5 C 0.5625 -2.296875 0.75 -2.296875 0.890625 -2.296875 L 3.671875 -2.296875 L 3.671875 0.5 C 3.671875 0.640625 3.671875 0.828125 3.875 0.828125 C 4.078125 0.828125 4.078125 0.640625 4.078125 0.5 Z M 4.078125 -2.296875"/>
    <path fill="#0000ff" transform="matrix(1 0 0 1 113.1255 115.491)" d="M 6.5625 -2.296875 C 6.734375 -2.296875 6.921875 -2.296875 6.921875 -2.5 C 6.921875 -2.6875 6.734375 -2.6875 6.5625 -2.6875 L 1.171875 -2.6875 C 1 -2.6875 0.828125 -2.6875 0.828125 -2.5 C 0.828125 -2.296875 1 -2.296875 1.171875 -2.296875 Z M 6.5625 -2.296875"/>
    <path fill="none" stroke="#0000ff" stroke-miterlimit="10" stroke-width="0.8" stroke-linejoin="round" transform="matrix(1 0 0 -1 -111 661)" d="M 219.082031 567.972656 L 228 576"/>
    <path fill="#0000ff" fill-rule="evenodd" stroke="#0000ff" stroke-miterlimit="10" stroke-width="0.8" stroke-linejoin="round" transform="matrix(1 0 0 -1 -111 661)" d="M 219.082031 567.972656 L 221.980469 569.238281 L 220.640625 570.722656 Z M 219.082031 567.972656"/>
    <path fill="none" stroke="#0000ff" stroke-miterlimit="10" stroke-width="0.8" stroke-linejoin="round" transform="matrix(1 0 0 -1 -111 661)" d="M 228 564 L 228 560"/>
    <path fill="#ffffff" fill-rule="evenodd" d="M 118 97 C 118 95.667969 116 95.667969 116 97 C 116 98.332031 118 98.332031 118 97 Z M 118 97"/>
    <path fill="#0000ff" fill-rule="evenodd" d="M 118.199219 97 C 118.199219 95.398438 115.800781 95.398438 115.800781 97 C 115.800781 98.601562 118.199219 98.601562 118.199219 97 Z M 117.800781 97 C 117.800781 95.933594 116.199219 95.933594 116.199219 97 C 116.199219 98.066406 117.800781 98.066406 117.800781 97 Z M 117.800781 97"/>
    <path fill="none" stroke="#0000ff" stroke-miterlimit="10" stroke-width="0.8" stroke-linejoin="round" transform="matrix(1 0 0 -1 -111 661)" d="M 228 576 L 228 584"/>
    <path fill="#ffffff" fill-rule="evenodd" d="M 118 85 C 118 83.667969 116 83.667969 116 85 C 116 86.332031 118 86.332031 118 85 Z M 118 85"/>
    <path fill="#0000ff" fill-rule="evenodd" d="M 118.199219 85 C 118.199219 83.398438 115.800781 83.398438 115.800781 85 C 115.800781 86.601562 118.199219 86.601562 118.199219 85 Z M 117.800781 85 C 117.800781 83.933594 116.199219 83.933594 116.199219 85 C 116.199219 86.066406 117.800781 86.066406 117.800781 85 Z M 117.800781 85"/>
    <path fill="none" stroke="#0000ff" stroke-miterlimit="10" stroke-width="0.8" stroke-linejoin="round" transform="matrix(1 0 0 -1 -111 661)" d="M 228 544 L 228 536"/>
    <path fill="#ffffff" fill-rule="evenodd" d="M 118.5 77 C 118.5 75 115.5 75 115.5 77 C 115.5 79 118.5 79 118.5 77 Z M 118.5 77"/>
    <path fill="#0000ff" fill-rule="evenodd" d="M 118.800781 77 C 118.800781 74.601562 115.199219 74.601562 115.199219 77 C 115.199219 79.398438 118.800781 79.398438 118.800781 77 Z M 118.199219 77 C 118.199219 75.398438 115.800781 75.398438 115.800781 77 C 115.800781 78.601562 118.199219 78.601562 118.199219 77 Z M 118.199219 77"/>
    <path fill="#ffffff" fill-rule="evenodd" d="M 118.5 125 C 118.5 123 115.5 123 115.5 125 C 115.5 127 118.5 127 118.5 125 Z M 118.5 125"/>
    <path fill="#0000ff" fill-rule="evenodd" d="M 118.800781 125 C 118.800781 122.601562 115.199219 122.601562 115.199219 125 C 115.199219 127.398438 118.800781 127.398438 118.800781 125 Z M 118.199219 125 C 118.199219 123.398438 115.800781 123.398438 115.800781 125 C 115.800781 126.601562 118.199219 126.601562 118.199219 125 Z M 118.199219 125"/>
    <path fill="#0000ff" transform="matrix(1 0 0 1 106.09 77)" d="M 3.671875 -6.234375 C 3.625 -6.34375 3.59375 -6.421875 3.453125 -6.421875 C 3.3125 -6.421875 3.296875 -6.375 3.234375 -6.21875 L 1.3125 -0.890625 C 1.203125 -0.59375 1 -0.28125 0.3125 -0.28125 L 0.3125 0 C 0.640625 -0.03125 0.890625 -0.03125 1.21875 -0.03125 C 1.53125 -0.03125 1.734375 -0.015625 2.234375 0 L 2.234375 -0.28125 C 1.71875 -0.28125 1.5625 -0.5625 1.5625 -0.734375 C 1.5625 -0.8125 1.59375 -0.859375 1.609375 -0.90625 L 2.03125 -2.0625 L 4.34375 -2.0625 L 4.828125 -0.703125 C 4.875 -0.625 4.875 -0.59375 4.875 -0.546875 C 4.875 -0.28125 4.375 -0.28125 4.140625 -0.28125 L 4.140625 0 C 4.546875 -0.03125 5.015625 -0.03125 5.421875 -0.03125 C 5.828125 -0.03125 5.859375 -0.03125 6.59375 0 L 6.59375 -0.28125 L 6.453125 -0.28125 C 5.890625 -0.28125 5.796875 -0.359375 5.703125 -0.609375 Z M 4.25 -2.34375 L 2.125 -2.34375 L 3.1875 -5.28125 Z M 4.25 -2.34375"/>
    <path fill="#0000ff" transform="matrix(1 0 0 1 105.834 131.127)" d="M 5.375 -5.296875 C 5.9375 -5.828125 6.5 -5.84375 6.640625 -5.84375 L 6.640625 -6.125 C 6.390625 -6.09375 5.9375 -6.09375 5.84375 -6.09375 C 5.46875 -6.09375 5.140625 -6.109375 4.734375 -6.125 L 4.734375 -5.84375 C 4.984375 -5.84375 5.125 -5.71875 5.125 -5.546875 C 5.125 -5.484375 5.09375 -5.40625 5.046875 -5.34375 L 2.0625 -2.578125 L 2.0625 -5.421875 C 2.0625 -5.75 2.078125 -5.84375 2.765625 -5.84375 L 2.984375 -5.84375 L 2.984375 -6.125 C 2.578125 -6.09375 2.078125 -6.09375 1.65625 -6.09375 C 1.25 -6.09375 0.75 -6.09375 0.34375 -6.125 L 0.34375 -5.84375 L 0.546875 -5.84375 C 1.234375 -5.84375 1.25 -5.75 1.25 -5.421875 L 1.25 -0.703125 C 1.25 -0.375 1.234375 -0.28125 0.546875 -0.28125 L 0.34375 -0.28125 L 0.34375 0 C 0.75 -0.03125 1.25 -0.03125 1.65625 -0.03125 C 2.078125 -0.03125 2.578125 -0.03125 2.984375 0 L 2.984375 -0.28125 L 2.765625 -0.28125 C 2.078125 -0.28125 2.0625 -0.375 2.0625 -0.703125 L 2.0625 -2.25 L 3.15625 -3.25 L 4.828125 -0.875 C 4.90625 -0.765625 4.984375 -0.640625 4.984375 -0.53125 C 4.984375 -0.28125 4.640625 -0.28125 4.46875 -0.28125 L 4.46875 0 C 4.875 -0.03125 5.3125 -0.03125 5.71875 -0.03125 C 5.953125 -0.03125 6.3125 -0.03125 6.765625 0 L 6.765625 -0.28125 C 6.203125 -0.28125 6.078125 -0.359375 5.796875 -0.765625 L 3.6875 -3.75 Z M 5.375 -5.296875"/>
    <path fill="#ff0000" transform="matrix(1 0 0 1 16.521 61)" d="M 1.765625 -4.40625 L 0.375 -4.296875 L 0.375 -3.984375 C 1.015625 -3.984375 1.109375 -3.921875 1.109375 -3.4375 L 1.109375 -0.75 C 1.109375 -0.3125 1 -0.3125 0.328125 -0.3125 L 0.328125 0 C 0.640625 -0.015625 1.1875 -0.03125 1.421875 -0.03125 C 1.78125 -0.03125 2.125 -0.015625 2.46875 0 L 2.46875 -0.3125 C 1.796875 -0.3125 1.765625 -0.359375 1.765625 -0.75 Z M 1.796875 -6.140625 C 1.796875 -6.453125 1.5625 -6.671875 1.28125 -6.671875 C 0.96875 -6.671875 0.75 -6.40625 0.75 -6.140625 C 0.75 -5.875 0.96875 -5.609375 1.28125 -5.609375 C 1.5625 -5.609375 1.796875 -5.828125 1.796875 -6.140625 Z M 1.796875 -6.140625"/>
    <path fill="#ff0000" transform="matrix(1 0 0 1 19.28064 61)" d="M 3.78125 -0.546875 L 3.78125 0.109375 L 5.25 0 L 5.25 -0.3125 C 4.5625 -0.3125 4.46875 -0.375 4.46875 -0.875 L 4.46875 -6.921875 L 3.046875 -6.8125 L 3.046875 -6.5 C 3.734375 -6.5 3.8125 -6.4375 3.8125 -5.9375 L 3.8125 -3.78125 C 3.53125 -4.140625 3.09375 -4.40625 2.5625 -4.40625 C 1.390625 -4.40625 0.34375 -3.421875 0.34375 -2.140625 C 0.34375 -0.875 1.3125 0.109375 2.453125 0.109375 C 3.09375 0.109375 3.53125 -0.234375 3.78125 -0.546875 Z M 3.78125 -3.21875 L 3.78125 -1.171875 C 3.78125 -1 3.78125 -0.984375 3.671875 -0.8125 C 3.375 -0.328125 2.9375 -0.109375 2.5 -0.109375 C 2.046875 -0.109375 1.6875 -0.375 1.453125 -0.75 C 1.203125 -1.15625 1.171875 -1.71875 1.171875 -2.140625 C 1.171875 -2.5 1.1875 -3.09375 1.46875 -3.546875 C 1.6875 -3.859375 2.0625 -4.1875 2.609375 -4.1875 C 2.953125 -4.1875 3.375 -4.03125 3.671875 -3.59375 C 3.78125 -3.421875 3.78125 -3.40625 3.78125 -3.21875 Z M 3.78125 -3.21875"/>
    <path fill="#ff0000" transform="matrix(1 0 0 1 24.809883 61)" d="M 1.109375 -2.515625 C 1.171875 -4 2.015625 -4.25 2.359375 -4.25 C 3.375 -4.25 3.484375 -2.90625 3.484375 -2.515625 Z M 1.109375 -2.296875 L 3.890625 -2.296875 C 4.109375 -2.296875 4.140625 -2.296875 4.140625 -2.515625 C 4.140625 -3.5 3.59375 -4.46875 2.359375 -4.46875 C 1.203125 -4.46875 0.28125 -3.4375 0.28125 -2.1875 C 0.28125 -0.859375 1.328125 0.109375 2.46875 0.109375 C 3.6875 0.109375 4.140625 -1 4.140625 -1.1875 C 4.140625 -1.28125 4.0625 -1.3125 4 -1.3125 C 3.921875 -1.3125 3.890625 -1.25 3.875 -1.171875 C 3.53125 -0.140625 2.625 -0.140625 2.53125 -0.140625 C 2.03125 -0.140625 1.640625 -0.4375 1.40625 -0.8125 C 1.109375 -1.28125 1.109375 -1.9375 1.109375 -2.296875 Z M 1.109375 -2.296875"/>
    <path fill="#ff0000" transform="matrix(1 0 0 1 29.233278 61)" d="M 3.3125 -0.75 C 3.359375 -0.359375 3.625 0.0625 4.09375 0.0625 C 4.3125 0.0625 4.921875 -0.078125 4.921875 -0.890625 L 4.921875 -1.453125 L 4.671875 -1.453125 L 4.671875 -0.890625 C 4.671875 -0.3125 4.421875 -0.25 4.3125 -0.25 C 3.984375 -0.25 3.9375 -0.703125 3.9375 -0.75 L 3.9375 -2.734375 C 3.9375 -3.15625 3.9375 -3.546875 3.578125 -3.921875 C 3.1875 -4.3125 2.6875 -4.46875 2.21875 -4.46875 C 1.390625 -4.46875 0.703125 -4 0.703125 -3.34375 C 0.703125 -3.046875 0.90625 -2.875 1.171875 -2.875 C 1.453125 -2.875 1.625 -3.078125 1.625 -3.328125 C 1.625 -3.453125 1.578125 -3.78125 1.109375 -3.78125 C 1.390625 -4.140625 1.875 -4.25 2.1875 -4.25 C 2.6875 -4.25 3.25 -3.859375 3.25 -2.96875 L 3.25 -2.609375 C 2.734375 -2.578125 2.046875 -2.546875 1.421875 -2.25 C 0.671875 -1.90625 0.421875 -1.390625 0.421875 -0.953125 C 0.421875 -0.140625 1.390625 0.109375 2.015625 0.109375 C 2.671875 0.109375 3.125 -0.296875 3.3125 -0.75 Z M 3.25 -2.390625 L 3.25 -1.390625 C 3.25 -0.453125 2.53125 -0.109375 2.078125 -0.109375 C 1.59375 -0.109375 1.1875 -0.453125 1.1875 -0.953125 C 1.1875 -1.5 1.609375 -2.328125 3.25 -2.390625 Z M 3.25 -2.390625"/>
    <path fill="#ff0000" transform="matrix(1 0 0 1 34.214578 61)" d="M 1.765625 -6.921875 L 0.328125 -6.8125 L 0.328125 -6.5 C 1.03125 -6.5 1.109375 -6.4375 1.109375 -5.9375 L 1.109375 -0.75 C 1.109375 -0.3125 1 -0.3125 0.328125 -0.3125 L 0.328125 0 C 0.65625 -0.015625 1.1875 -0.03125 1.4375 -0.03125 C 1.6875 -0.03125 2.171875 -0.015625 2.546875 0 L 2.546875 -0.3125 C 1.875 -0.3125 1.765625 -0.3125 1.765625 -0.75 Z M 1.765625 -6.921875"/>
    <path fill="none" stroke="#ff0000" stroke-miterlimit="10" stroke-width="0.8" stroke-linejoin="round" transform="matrix(1 0 0 -1 -111 661)" d="M 151.082031 595.972656 L 160 604"/>
    <path fill="#ff0000" fill-rule="evenodd" stroke="#ff0000" stroke-miterlimit="10" stroke-width="0.8" stroke-linejoin="round" transform="matrix(1 0 0 -1 -111 661)" d="M 151.082031 595.972656 L 153.980469 597.238281 L 152.640625 598.722656 Z M 151.082031 595.972656"/>
    <path fill="none" stroke="#ff0000" stroke-miterlimit="10" stroke-width="0.8" stroke-linejoin="round" transform="matrix(1 0 0 -1 -111 661)" d="M 160 592 L 160 588"/>
    <path fill="#ffffff" fill-rule="evenodd" d="M 50 69 C 50 67.667969 48 67.667969 48 69 C 48 70.332031 50 70.332031 50 69 Z M 50 69"/>
    <path fill="#ff0000" fill-rule="evenodd" d="M 50.199219 69 C 50.199219 67.398438 47.800781 67.398438 47.800781 69 C 47.800781 70.601562 50.199219 70.601562 50.199219 69 Z M 49.800781 69 C 49.800781 67.933594 48.199219 67.933594 48.199219 69 C 48.199219 70.066406 49.800781 70.066406 49.800781 69 Z M 49.800781 69"/>
    <path fill="none" stroke="#ff0000" stroke-miterlimit="10" stroke-width="0.8" stroke-linejoin="round" transform="matrix(1 0 0 -1 -111 661)" d="M 160 604 L 160 612"/>
    <path fill="#ffffff" fill-rule="evenodd" d="M 50 57 C 50 55.667969 48 55.667969 48 57 C 48 58.332031 50 58.332031 50 57 Z M 50 57"/>
    <path fill="#ff0000" fill-rule="evenodd" d="M 50.199219 57 C 50.199219 55.398438 47.800781 55.398438 47.800781 57 C 47.800781 58.601562 50.199219 58.601562 50.199219 57 Z M 49.800781 57 C 49.800781 55.933594 48.199219 55.933594 48.199219 57 C 48.199219 58.066406 49.800781 58.066406 49.800781 57 Z M 49.800781 57"/>
    <path fill="none" stroke="#ff0000" stroke-miterlimit="10" stroke-width="0.8" stroke-linejoin="round" transform="matrix(1 0 0 -1 -111 661)" d="M 160 588 L 160 580"/>
    <path fill="#ffffff" fill-rule="evenodd" d="M 50.5 49 C 50.5 47 47.5 47 47.5 49 C 47.5 51 50.5 51 50.5 49 Z M 50.5 49"/>
    <path fill="#ff0000" fill-rule="evenodd" d="M 50.800781 49 C 50.800781 46.601562 47.199219 46.601562 47.199219 49 C 47.199219 51.398438 50.800781 51.398438 50.800781 49 Z M 50.199219 49 C 50.199219 47.398438 47.800781 47.398438 47.800781 49 C 47.800781 50.601562 50.199219 50.601562 50.199219 49 Z M 50.199219 49"/>
    <path fill="#ffffff" fill-rule="evenodd" d="M 50.5 81 C 50.5 79 47.5 79 47.5 81 C 47.5 83 50.5 83 50.5 81 Z M 50.5 81"/>
    <path fill="#ff0000" fill-rule="evenodd" d="M 50.800781 81 C 50.800781 78.601562 47.199219 78.601562 47.199219 81 C 47.199219 83.398438 50.800781 83.398438 50.800781 81 Z M 50.199219 81 C 50.199219 79.398438 47.800781 79.398438 47.800781 81 C 47.800781 82.601562 50.199219 82.601562 50.199219 81 Z M 50.199219 81"/>
    <path fill="#ff0000" transform="matrix(1 0 0 1 38.09 49)" d="M 3.671875 -6.234375 C 3.625 -6.34375 3.59375 -6.421875 3.453125 -6.421875 C 3.3125 -6.421875 3.296875 -6.375 3.234375 -6.21875 L 1.3125 -0.890625 C 1.203125 -0.59375 1 -0.28125 0.3125 -0.28125 L 0.3125 0 C 0.640625 -0.03125 0.890625 -0.03125 1.21875 -0.03125 C 1.53125 -0.03125 1.734375 -0.015625 2.234375 0 L 2.234375 -0.28125 C 1.71875 -0.28125 1.5625 -0.5625 1.5625 -0.734375 C 1.5625 -0.8125 1.59375 -0.859375 1.609375 -0.90625 L 2.03125 -2.0625 L 4.34375 -2.0625 L 4.828125 -0.703125 C 4.875 -0.625 4.875 -0.59375 4.875 -0.546875 C 4.875 -0.28125 4.375 -0.28125 4.140625 -0.28125 L 4.140625 0 C 4.546875 -0.03125 5.015625 -0.03125 5.421875 -0.03125 C 5.828125 -0.03125 5.859375 -0.03125 6.59375 0 L 6.59375 -0.28125 L 6.453125 -0.28125 C 5.890625 -0.28125 5.796875 -0.359375 5.703125 -0.609375 Z M 4.25 -2.34375 L 2.125 -2.34375 L 3.1875 -5.28125 Z M 4.25 -2.34375"/>
    <path fill="#ff0000" transform="matrix(1 0 0 1 37.834 87.127)" d="M 5.375 -5.296875 C 5.9375 -5.828125 6.5 -5.84375 6.640625 -5.84375 L 6.640625 -6.125 C 6.390625 -6.09375 5.9375 -6.09375 5.84375 -6.09375 C 5.46875 -6.09375 5.140625 -6.109375 4.734375 -6.125 L 4.734375 -5.84375 C 4.984375 -5.84375 5.125 -5.71875 5.125 -5.546875 C 5.125 -5.484375 5.09375 -5.40625 5.046875 -5.34375 L 2.0625 -2.578125 L 2.0625 -5.421875 C 2.0625 -5.75 2.078125 -5.84375 2.765625 -5.84375 L 2.984375 -5.84375 L 2.984375 -6.125 C 2.578125 -6.09375 2.078125 -6.09375 1.65625 -6.09375 C 1.25 -6.09375 0.75 -6.09375 0.34375 -6.125 L 0.34375 -5.84375 L 0.546875 -5.84375 C 1.234375 -5.84375 1.25 -5.75 1.25 -5.421875 L 1.25 -0.703125 C 1.25 -0.375 1.234375 -0.28125 0.546875 -0.28125 L 0.34375 -0.28125 L 0.34375 0 C 0.75 -0.03125 1.25 -0.03125 1.65625 -0.03125 C 2.078125 -0.03125 2.578125 -0.03125 2.984375 0 L 2.984375 -0.28125 L 2.765625 -0.28125 C 2.078125 -0.28125 2.0625 -0.375 2.0625 -0.703125 L 2.0625 -2.25 L 3.15625 -3.25 L 4.828125 -0.875 C 4.90625 -0.765625 4.984375 -0.640625 4.984375 -0.53125 C 4.984375 -0.28125 4.640625 -0.28125 4.46875 -0.28125 L 4.46875 0 C 4.875 -0.03125 5.3125 -0.03125 5.71875 -0.03125 C 5.953125 -0.03125 6.3125 -0.03125 6.765625 0 L 6.765625 -0.28125 C 6.203125 -0.28125 6.078125 -0.359375 5.796875 -0.765625 L 3.6875 -3.75 Z M 5.375 -5.296875"/>
</svg>
